<svg version="1.1" id="Layer_1" xmlns="http://www.w3.org/2000/svg" xmlns:xlink="http://www.w3.org/1999/xlink" x="0px" y="0px"
	 width="100%" viewBox="0 0 2000 2000" enable-background="new 0 0 2000 2000" xml:space="preserve">
<path fill="#0D394C" opacity="1.000000" stroke="none" 
	d="
M918.000000,2001.000000 
	C612.000000,2001.000000 306.500000,2001.000000 1.000000,2001.000000 
	C1.000000,1334.333374 1.000000,667.666687 1.000000,1.000000 
	C667.666687,1.000000 1334.333374,1.000000 2001.000000,1.000000 
	C2001.000000,667.666687 2001.000000,1334.333374 2001.000000,2001.000000 
	C1640.166626,2001.000000 1279.333374,2001.000000 918.000000,2001.000000 
M820.817932,1353.195312 
	C820.578430,1353.002808 820.338867,1352.810181 820.055603,1351.831909 
	C822.324402,1343.748901 824.593201,1335.665771 826.858582,1327.594727 
	C823.118225,1326.259888 822.103821,1327.803223 820.721008,1330.753418 
	C817.580200,1337.454102 813.799561,1343.890747 809.809082,1350.134399 
	C808.668091,1351.919678 805.917175,1352.676025 803.904480,1353.904175 
	C803.442444,1353.467285 802.980469,1353.030396 802.518494,1352.593506 
	C804.258606,1346.580811 806.248413,1340.624268 807.615540,1334.527832 
	C808.159485,1332.102295 807.325073,1329.367432 807.118164,1326.773438 
	C804.520630,1327.845215 801.822937,1328.733765 799.372009,1330.073608 
	C798.306274,1330.656128 797.747803,1332.166626 796.958923,1333.255737 
	C797.143433,1333.390625 797.328003,1333.525635 797.512573,1333.660645 
	C799.070923,1332.434692 800.629272,1331.208740 802.187622,1329.982910 
	C802.614380,1332.814331 802.127563,1335.022705 801.580078,1337.216187 
	C800.332886,1342.211548 798.716736,1347.143799 797.887451,1352.206055 
	C797.073853,1357.172852 800.002991,1359.162842 804.491882,1356.866455 
	C806.655457,1355.759888 808.577698,1354.017456 810.303345,1352.262207 
	C812.243835,1350.288452 813.839539,1347.975708 815.585205,1345.810425 
	C816.043152,1347.474243 815.515930,1348.864868 815.554443,1350.239746 
	C815.622437,1352.669312 816.034973,1355.089233 816.303284,1357.513184 
	C818.612732,1356.518921 821.078613,1355.770874 823.174011,1354.439697 
	C824.471130,1353.615723 825.205139,1351.905273 826.191895,1350.592773 
	C825.945312,1350.424072 825.698730,1350.255249 825.452148,1350.086548 
	C824.136780,1351.327393 822.821411,1352.568237 820.817932,1353.195312 
M1138.959229,1347.785889 
	C1139.177490,1348.025513 1139.395874,1348.265259 1139.479492,1349.246826 
	C1139.653564,1351.995972 1139.827759,1354.744995 1140.001831,1357.494019 
	C1142.762817,1356.031616 1145.583862,1354.667480 1148.245850,1353.042725 
	C1148.977417,1352.596191 1149.233154,1351.369873 1150.274414,1349.462280 
	C1147.748413,1351.426514 1146.215454,1352.618408 1144.682495,1353.810303 
	C1144.300415,1353.557373 1143.918335,1353.304443 1143.536255,1353.051514 
	C1145.893799,1344.542603 1148.251343,1336.033691 1150.592285,1327.584229 
	C1146.743408,1326.198120 1145.810547,1327.925049 1144.439331,1330.815796 
	C1141.269775,1337.497925 1137.466187,1343.908691 1133.505737,1350.167603 
	C1132.400024,1351.915039 1129.850464,1352.748901 1127.963257,1354.001953 
	C1127.581177,1353.633911 1127.199097,1353.265869 1126.817017,1352.897827 
	C1127.101685,1351.175049 1127.248901,1349.415649 1127.697510,1347.736694 
	C1128.900024,1343.237305 1130.495483,1338.824951 1131.402954,1334.271973 
	C1131.873047,1331.913940 1131.215210,1329.331055 1131.066772,1326.849731 
	C1128.454102,1327.837646 1125.740601,1328.630249 1123.275024,1329.902832 
	C1122.179321,1330.468628 1121.583618,1332.003052 1120.760864,1333.097778 
	C1120.948608,1333.271118 1121.136230,1333.444458 1121.323853,1333.617920 
	C1122.819824,1332.472534 1124.315796,1331.327148 1125.811768,1330.181763 
	C1126.446777,1332.668945 1126.090942,1334.390747 1125.647827,1336.089844 
	C1124.347656,1341.074097 1122.784546,1346.005127 1121.812378,1351.051147 
	C1121.456787,1352.896606 1121.883545,1356.148071 1123.002075,1356.724854 
	C1124.634155,1357.566528 1127.810913,1357.341064 1129.267334,1356.206909 
	C1132.623291,1353.593506 1135.339355,1350.158447 1138.959229,1347.785889 
M1004.499939,1090.835205 
	C1019.927917,1090.835205 1035.355957,1090.835205 1051.200684,1090.835205 
	C1051.051514,1088.701904 1050.943481,1087.158447 1050.807495,1085.213623 
	C1044.479492,1085.213623 1038.642944,1085.440063 1032.829834,1085.168823 
	C1018.327332,1084.492188 1007.054321,1077.813721 999.163757,1065.768555 
	C990.899414,1053.153076 987.501892,1038.773682 987.149231,1024.039062 
	C986.387939,992.229675 986.527832,960.398743 986.315735,928.576538 
	C986.310425,927.779358 986.501770,926.980957 986.686279,925.503235 
	C988.907471,925.503235 991.021179,925.503174 993.134827,925.503235 
	C1042.294189,925.504578 1091.453613,925.523499 1140.613037,925.484680 
	C1146.605591,925.479980 1152.623535,925.462158 1158.586182,924.946045 
	C1196.652710,921.650940 1229.708984,907.351746 1254.703491,877.945801 
	C1287.378784,839.503296 1299.304810,794.497742 1290.454102,745.102783 
	C1281.970581,697.758057 1255.522339,662.603027 1211.899048,641.371094 
	C1190.270264,630.844238 1166.980225,627.104736 1143.067261,627.011841 
	C1123.237183,626.934753 1103.406616,626.998657 1083.576172,627.000061 
	C1081.786377,627.000183 1079.996582,627.000061 1077.738770,627.000061 
	C1077.738770,613.774841 1077.738770,601.029724 1077.738770,588.083557 
	C945.024902,588.083557 812.785400,588.083557 680.474121,588.083557 
	C679.616882,591.148804 680.204529,592.752075 683.589600,592.664490 
	C686.917175,592.578369 690.254883,592.728333 693.583801,592.873108 
	C715.300781,593.817749 730.259644,604.226807 738.049316,624.668701 
	C743.534058,639.062134 744.993469,654.105774 744.999512,669.321472 
	C745.040100,771.306274 745.206482,873.291992 744.724915,975.274597 
	C744.666138,987.728149 742.247253,1000.533020 738.725586,1012.530396 
	C731.901917,1035.776855 715.678284,1046.857666 691.463318,1046.991821 
	C687.825012,1047.012085 684.186523,1046.994629 680.616455,1046.994629 
	C678.986450,1052.304199 682.507751,1051.503540 685.174500,1051.504395 
	C730.501099,1051.517456 775.827759,1051.509888 821.154358,1051.507446 
	C827.820007,1051.507080 834.486877,1051.437866 841.150879,1051.543579 
	C844.393616,1051.594971 845.898010,1050.681763 844.138550,1046.936035 
	C839.654480,1046.936035 835.000122,1047.079102 830.357056,1046.911377 
	C809.534302,1046.158936 795.244324,1036.074829 787.537537,1016.695312 
	C781.782104,1002.222839 780.056213,987.051941 780.030884,971.651855 
	C779.950256,922.659241 779.995239,873.666443 779.991699,824.673706 
	C779.991638,823.218323 779.991699,821.762878 779.991699,820.160522 
	C837.352844,820.160522 894.233398,820.160522 951.176208,820.160522 
	C951.299194,821.125427 951.454468,821.772400 951.453857,822.419312 
	C951.391174,887.075317 951.403198,951.731628 951.174744,1016.387085 
	C951.125000,1030.448120 948.897461,1044.261108 943.143127,1057.266113 
	C935.357300,1074.862183 922.173828,1084.780029 902.575989,1085.293579 
	C897.474365,1085.427368 892.366150,1085.313843 886.724670,1085.313843 
	C886.840027,1087.644531 886.915955,1089.178589 886.997925,1090.835083 
	C926.184937,1090.835083 964.842407,1090.835083 1004.499939,1090.835205 
M1409.354614,1193.039673 
	C1410.720825,1189.979248 1412.087036,1186.918945 1413.880615,1182.901489 
	C1417.124756,1190.475220 1419.840698,1197.041382 1422.797729,1203.497070 
	C1423.289307,1204.570435 1424.760864,1205.651611 1425.910522,1205.816284 
	C1426.769043,1205.939331 1428.334595,1204.806274 1428.739624,1203.867676 
	C1435.112061,1189.099976 1441.347290,1174.272949 1447.646362,1159.383179 
	C1444.150757,1157.786377 1442.563965,1159.021118 1441.392334,1162.093018 
	C1438.786621,1168.925659 1435.892212,1175.648193 1433.123169,1182.418701 
	C1430.815552,1188.061035 1428.518433,1193.707886 1425.801514,1200.370972 
	C1422.987793,1193.849609 1420.392090,1188.513794 1418.430542,1182.954102 
	C1417.641602,1180.717651 1417.602051,1177.780151 1418.339966,1175.528198 
	C1420.128174,1170.070923 1422.573120,1164.828613 1425.185303,1158.444458 
	C1415.723999,1160.541626 1418.702515,1170.446289 1413.282349,1174.336670 
	C1411.989990,1171.136597 1410.730469,1168.065796 1409.507568,1164.980347 
	C1406.790405,1158.126099 1407.322021,1158.347168 1403.022217,1159.813232 
	C1405.227539,1165.198486 1407.478394,1170.557007 1409.597168,1175.967285 
	C1410.115601,1177.291382 1410.820557,1179.021240 1410.384766,1180.160889 
	C1407.930298,1186.577881 1405.154053,1192.871704 1402.077148,1200.182495 
	C1400.929321,1197.625122 1400.236450,1196.182129 1399.625977,1194.705078 
	C1395.118774,1183.800049 1390.515991,1172.932129 1386.201416,1161.951172 
	C1384.942993,1158.748413 1383.302856,1157.968140 1380.030273,1159.358154 
	C1386.311157,1174.201660 1392.482178,1188.890747 1398.807007,1203.513306 
	C1399.268921,1204.581177 1400.866089,1205.825073 1401.898315,1205.792847 
	C1402.945679,1205.760132 1404.335693,1204.443726 1404.894165,1203.343506 
	C1406.470337,1200.238525 1407.697021,1196.956055 1409.354614,1193.039673 
M976.192566,1195.436523 
	C976.192566,1183.323120 976.192566,1171.209839 976.192566,1159.280884 
	C972.575134,1158.086060 971.477844,1159.145020 971.527710,1162.391113 
	C971.676270,1172.053101 971.598328,1181.718994 971.568542,1191.383301 
	C971.563843,1192.917480 971.351074,1194.451050 971.146484,1197.144043 
	C969.175781,1194.820801 967.989380,1193.507080 966.896118,1192.119629 
	C958.854675,1181.915039 950.893372,1171.646118 942.735352,1161.535645 
	C941.537537,1160.051270 939.432617,1159.298706 936.695923,1157.526611 
	C936.695923,1160.689087 936.695984,1162.166504 936.695984,1163.643799 
	C936.695984,1177.614258 936.695923,1191.584839 936.695923,1205.987305 
	C938.445618,1205.841553 939.784058,1205.729980 941.687927,1205.571289 
	C941.687927,1193.151123 941.687927,1181.165894 941.687927,1168.041260 
	C943.547729,1170.261230 944.614990,1171.474976 945.616699,1172.740479 
	C953.680481,1182.927856 961.656677,1193.186401 969.866211,1203.254639 
	C971.135193,1204.811035 973.456787,1205.509155 976.192566,1207.141968 
	C976.192566,1202.398926 976.192566,1199.403198 976.192566,1195.436523 
M865.638611,1203.203613 
	C866.825745,1202.293701 868.137085,1201.506836 869.180115,1200.454102 
	C876.068970,1193.501099 878.602905,1185.212769 875.931152,1175.740845 
	C873.572449,1167.378784 868.520935,1161.196411 859.764343,1158.965454 
	C850.459534,1156.595093 841.149963,1160.877197 835.998291,1169.569946 
	C830.466309,1178.904419 831.717651,1191.261841 839.009888,1199.309814 
	C845.631287,1206.617432 855.168030,1208.197266 865.638611,1203.203613 
M1294.125732,1203.475464 
	C1302.279053,1207.711060 1310.329468,1207.545044 1317.541016,1201.786011 
	C1325.506836,1195.424561 1328.498901,1186.869019 1326.173950,1176.826660 
	C1324.156738,1168.113770 1319.153564,1161.673462 1310.358032,1159.107422 
	C1302.281982,1156.751221 1295.185547,1159.166260 1289.390869,1165.124634 
	C1278.764404,1176.050903 1280.719849,1193.658813 1294.125732,1203.475464 
M590.903992,1181.238159 
	C596.389160,1170.939941 589.317932,1160.286255 582.447815,1159.375488 
	C574.868103,1158.370605 567.052307,1159.146118 559.342773,1159.146118 
	C559.342773,1174.857422 559.342773,1190.248901 559.342773,1206.033447 
	C561.016724,1205.866577 562.371216,1205.731689 564.137451,1205.555664 
	C564.137451,1199.731689 564.137451,1194.318115 564.137451,1188.591431 
	C568.896667,1188.591431 573.200378,1188.537354 577.502258,1188.604736 
	C583.067505,1188.692017 587.562134,1186.795654 590.903992,1181.238159 
M762.758728,1175.348755 
	C761.816345,1176.445801 760.874023,1177.542725 759.679993,1178.932739 
	C755.122925,1172.866455 750.994873,1167.044678 746.470764,1161.549194 
	C745.129883,1159.920288 742.673645,1159.209595 740.728516,1158.078125 
	C740.402039,1158.572876 740.075562,1159.067505 739.749084,1159.562256 
	C745.500183,1167.209106 751.251282,1174.855957 757.118896,1182.657837 
	C751.369751,1190.312134 745.712646,1197.843994 740.055542,1205.375732 
	C740.430969,1205.724487 740.806458,1206.073242 741.181885,1206.421997 
	C751.091736,1203.734619 752.457275,1192.105103 760.299805,1186.743408 
	C764.376343,1192.178589 768.290955,1197.728882 772.600037,1202.953979 
	C774.006592,1204.659546 776.440491,1205.518066 778.404602,1206.764038 
	C778.772888,1206.298828 779.141235,1205.833740 779.509583,1205.368530 
	C773.860657,1197.841309 768.211792,1190.314087 762.454163,1182.641968 
	C768.380310,1174.768555 774.132080,1167.126831 779.883911,1159.484985 
	C779.580505,1159.012207 779.277161,1158.539551 778.973755,1158.066895 
	C777.099915,1159.098633 774.741028,1159.717529 773.444641,1161.240845 
	C769.788269,1165.537231 766.568176,1170.204834 762.758728,1175.348755 
M678.339417,1185.978882 
	C675.029297,1177.996582 671.807373,1169.975586 668.325134,1162.069092 
	C667.721252,1160.697876 666.146362,1159.242920 664.767944,1158.927124 
	C664.010986,1158.753784 662.304565,1160.695923 661.747681,1161.993774 
	C656.373230,1174.519531 651.145386,1187.108154 645.895081,1199.687012 
	C645.098572,1201.595337 644.402466,1203.545532 643.646729,1205.510742 
	C649.572754,1207.489380 649.525513,1202.707153 650.741516,1199.892212 
	C654.510376,1191.167847 654.410583,1191.124878 663.755798,1191.125488 
	C675.380432,1191.126465 675.436523,1191.103027 680.099304,1202.297974 
	C681.315247,1205.217285 682.588867,1207.253540 686.290771,1205.151978 
	C683.739746,1198.935303 681.220215,1192.795410 678.339417,1185.978882 
M1219.581299,1326.421997 
	C1217.289062,1327.273682 1214.996704,1328.125366 1211.353149,1329.479126 
	C1213.267578,1322.221558 1214.948120,1315.850708 1216.794678,1308.850220 
	C1212.721191,1309.550903 1209.244995,1310.148804 1205.768799,1310.746704 
	C1210.758301,1311.305420 1210.393799,1314.011475 1209.345947,1317.518188 
	C1206.060425,1328.513550 1203.094604,1339.605957 1199.700073,1350.566406 
	C1198.787964,1353.511108 1199.565674,1354.778076 1202.084473,1355.967041 
	C1206.929932,1358.254028 1211.707520,1358.517212 1216.460815,1355.937134 
	C1223.843506,1351.929688 1228.220459,1345.728271 1229.265259,1337.386841 
	C1230.127197,1330.504395 1227.433350,1327.289185 1219.581299,1326.421997 
M1341.056519,1352.143311 
	C1337.846802,1353.702393 1338.135010,1351.792847 1338.687622,1349.719238 
	C1340.226807,1343.942749 1341.997192,1338.216797 1343.225952,1332.376221 
	C1343.565186,1330.763794 1342.835205,1328.242188 1341.656738,1327.206665 
	C1340.677124,1326.345825 1338.043945,1326.496704 1336.636719,1327.194580 
	C1334.474731,1328.266724 1332.710327,1330.161987 1330.826782,1331.766113 
	C1329.634155,1332.781982 1328.531494,1333.903564 1327.388428,1334.977783 
	C1326.969971,1334.782104 1326.551514,1334.586304 1326.133057,1334.390625 
	C1326.600220,1331.957397 1327.067383,1329.524170 1327.648438,1326.497437 
	C1323.835327,1327.142578 1320.470703,1327.711914 1317.106079,1328.281250 
	C1321.807861,1328.937622 1321.408569,1331.556641 1320.471802,1334.700439 
	C1318.304077,1341.974854 1316.260376,1349.286377 1314.162354,1356.596680 
	C1317.666382,1357.563477 1318.964844,1356.498291 1320.375977,1353.360596 
	C1323.340210,1346.770630 1327.083008,1340.491699 1330.965820,1334.376831 
	C1332.189697,1332.449585 1334.877563,1331.452026 1336.895386,1330.029053 
	C1337.298340,1330.344849 1337.701294,1330.660767 1338.104248,1330.976685 
	C1337.822876,1332.685425 1337.682739,1334.432495 1337.233154,1336.095703 
	C1335.977295,1340.742310 1334.327393,1345.300415 1333.372925,1350.002930 
	C1332.899902,1352.333740 1333.613159,1354.905273 1333.789673,1357.367920 
	C1336.229736,1356.359985 1338.792236,1355.564575 1341.059814,1354.257568 
	C1342.260376,1353.565430 1342.948120,1351.983521 1343.867432,1350.803345 
	C1343.621948,1350.622192 1343.376587,1350.440918 1343.131104,1350.259766 
	C1342.690918,1350.661377 1342.250732,1351.062988 1341.056519,1352.143311 
M908.751099,1329.472778 
	C911.890991,1330.153198 910.858887,1332.225708 910.313660,1334.142334 
	C908.185486,1341.623413 906.060791,1349.105347 903.867493,1356.823975 
	C905.768677,1356.823975 907.218140,1356.823975 908.602478,1356.823975 
	C916.631531,1336.933594 921.197876,1330.741089 928.394348,1331.224609 
	C926.673340,1337.217529 924.797485,1342.998169 923.414673,1348.894409 
	C922.760742,1351.682617 919.899719,1355.657593 923.959351,1357.191772 
	C925.830444,1357.898804 929.222900,1354.886353 931.774719,1353.315308 
	C932.633301,1352.786865 933.025757,1351.501221 933.631287,1350.561768 
	C933.477112,1350.445679 933.322937,1350.329590 933.168701,1350.213501 
	C931.681335,1351.386353 930.193909,1352.559326 927.515320,1354.671509 
	C928.141479,1351.524170 928.400513,1349.783203 928.841064,1348.089600 
	C930.222717,1342.778320 932.004028,1337.546143 933.000244,1332.166626 
	C933.936707,1327.108887 930.694153,1324.884277 926.120239,1327.260742 
	C924.112610,1328.303955 922.455994,1330.077515 920.760315,1331.649292 
	C919.382324,1332.926758 918.183838,1334.397827 916.905762,1335.783203 
	C916.488647,1335.571289 916.071533,1335.359497 915.654419,1335.147705 
	C916.177185,1332.507202 916.699951,1329.866577 917.371582,1326.474243 
	C913.647034,1327.152588 910.451904,1327.734619 907.256775,1328.316528 
	C907.503418,1328.701416 907.750000,1329.086304 908.751099,1329.472778 
M1243.682617,1339.055298 
	C1244.154297,1337.287598 1244.920654,1335.536743 1245.024170,1333.747803 
	C1245.156128,1331.463745 1244.752808,1329.148682 1244.580200,1326.847046 
	C1242.079224,1327.712402 1239.431763,1328.306396 1237.133667,1329.547607 
	C1235.809082,1330.262817 1235.049316,1332.023926 1234.035400,1333.314209 
	C1234.256104,1333.462524 1234.476807,1333.610718 1234.697510,1333.758911 
	C1236.266724,1332.528198 1237.835938,1331.297485 1240.578003,1329.146851 
	C1239.928711,1332.259155 1239.662964,1333.851074 1239.259888,1335.407227 
	C1237.884155,1340.716919 1236.217163,1345.967773 1235.191528,1351.342285 
	C1234.850342,1353.130371 1235.529785,1356.119263 1236.790649,1356.931274 
	C1238.119995,1357.786987 1241.035889,1357.268921 1242.657349,1356.321655 
	C1245.028931,1354.936279 1246.937134,1352.704590 1248.903564,1350.697144 
	C1250.232178,1349.340942 1251.321045,1347.749878 1252.742065,1345.984497 
	C1254.347046,1350.250122 1248.821289,1354.844604 1254.289307,1357.623657 
	C1256.783081,1358.891113 1261.241333,1354.693237 1262.788940,1350.088867 
	C1261.137329,1351.557129 1259.667725,1352.863770 1258.197998,1354.170410 
	C1257.766968,1353.933350 1257.335938,1353.696289 1256.904907,1353.459229 
	C1259.296875,1344.839722 1261.688721,1336.220215 1264.058838,1327.678955 
	C1260.152222,1326.045288 1259.278198,1328.029907 1257.934448,1330.768311 
	C1254.672974,1337.415283 1251.006714,1343.895020 1247.027466,1350.138672 
	C1245.886353,1351.929199 1243.119507,1352.683472 1241.098022,1353.912720 
	C1240.698242,1353.499512 1240.298462,1353.086182 1239.898682,1352.672974 
	C1241.071167,1348.387573 1242.243652,1344.102051 1243.682617,1339.055298 
M656.859741,1341.130615 
	C653.159363,1345.842773 651.046814,1352.309448 642.486145,1353.837158 
	C644.480713,1346.802490 646.443542,1340.881714 647.744019,1334.818848 
	C648.292664,1332.261353 647.445374,1329.404297 647.232544,1326.683472 
	C644.523438,1327.932983 641.732056,1329.038086 639.149353,1330.509521 
	C638.233643,1331.031372 637.826294,1332.445435 637.186829,1333.452148 
	C637.354065,1333.561401 637.521301,1333.670654 637.688599,1333.779907 
	C639.238098,1332.516602 640.787598,1331.253174 643.551453,1328.999756 
	C642.928040,1332.155640 642.688477,1333.750488 642.292236,1335.305298 
	C640.896484,1340.781860 639.238159,1346.203613 638.146423,1351.738159 
	C637.823120,1353.376953 638.507812,1356.096313 639.695923,1356.908081 
	C640.929260,1357.751099 643.697510,1357.493042 645.142578,1356.627686 
	C647.650146,1355.126099 649.735168,1352.865845 651.843140,1350.768677 
	C653.194031,1349.424805 654.268311,1347.802856 656.331848,1345.224365 
	C656.078369,1347.774170 655.821289,1348.864136 655.893433,1349.931763 
	C656.066467,1352.493408 656.394104,1355.044434 656.659363,1357.599731 
	C659.193787,1356.308228 661.818176,1355.159790 664.216980,1353.652344 
	C665.132874,1353.076660 665.531982,1351.678711 666.166626,1350.655518 
	C665.976929,1350.512451 665.787231,1350.369385 665.597473,1350.226196 
	C664.140259,1351.541260 662.682983,1352.856201 661.225708,1354.171265 
	C660.784485,1353.947754 660.343323,1353.724121 659.902100,1353.500610 
	C662.292664,1344.882935 664.683167,1336.265259 667.137817,1327.416626 
	C663.906799,1326.716919 662.027100,1326.935059 661.120789,1330.253418 
	C660.164795,1333.754028 658.533875,1337.070312 656.859741,1341.130615 
M958.380737,1351.679321 
	C957.124573,1355.978882 956.120422,1360.374756 954.529175,1364.546387 
	C953.344666,1367.651733 951.390198,1370.453857 948.592468,1370.210571 
	C946.957092,1368.264771 946.005615,1367.132690 945.054138,1366.000610 
	C944.193237,1366.861816 943.332275,1367.722900 942.471313,1368.583984 
	C943.734314,1369.689087 944.927856,1371.593018 946.276733,1371.710449 
	C948.254944,1371.882324 950.883362,1371.364990 952.273804,1370.091919 
	C955.150513,1367.458008 958.263000,1364.494995 959.716003,1361.015015 
	C962.706787,1353.851685 964.657959,1346.255737 967.063843,1338.846558 
	C968.479858,1334.485718 967.629211,1328.527832 974.705872,1327.615601 
	C973.412292,1327.281128 972.118713,1326.946655 970.842896,1326.616699 
	C972.092468,1316.515747 975.951782,1311.058228 982.294556,1310.773804 
	C982.294556,1311.377930 982.132019,1312.030396 982.328247,1312.546143 
	C982.737793,1313.622192 983.155396,1314.822510 983.951843,1315.557739 
	C984.248962,1315.832031 986.187988,1315.130493 986.367065,1314.557861 
	C986.710938,1313.458130 986.746155,1311.342163 986.178223,1311.044922 
	C984.250305,1310.035889 981.525269,1308.546509 979.974915,1309.226196 
	C976.472229,1310.761230 972.988647,1313.023193 970.412659,1315.829590 
	C966.537231,1320.051880 966.059692,1327.338257 958.728394,1328.910645 
	C960.400146,1329.212402 962.071838,1329.514038 963.980957,1329.858521 
	C962.146851,1337.109497 960.402100,1344.007446 958.380737,1351.679321 
M584.650330,1342.813232 
	C582.474487,1348.114380 583.008179,1355.230469 575.278381,1356.775635 
	C581.200317,1356.775635 587.122314,1356.775635 592.069275,1356.775635 
	C590.946106,1355.216797 588.239258,1353.145142 588.500000,1351.562500 
	C591.249573,1334.874634 600.533752,1322.072266 612.896545,1311.454834 
	C609.017395,1311.454834 604.659973,1311.454834 599.162781,1311.454834 
	C601.565674,1312.524902 602.842834,1313.093628 605.001709,1314.055054 
	C600.755493,1320.261841 596.788879,1326.060181 592.290222,1332.635986 
	C590.926819,1328.072632 589.928284,1324.431274 588.745789,1320.850708 
	C587.382263,1316.721924 586.104553,1312.737549 592.217041,1311.316650 
	C587.057617,1311.316650 581.898193,1311.316650 576.319702,1311.316650 
	C583.323059,1316.250366 587.672180,1332.490723 584.650330,1342.813232 
M1120.541260,1184.011108 
	C1124.977905,1184.011108 1129.414551,1184.011108 1133.999756,1184.011108 
	C1133.914185,1182.565308 1133.919678,1181.043213 1133.809937,1181.034912 
	C1126.661865,1180.490723 1119.504395,1180.068970 1112.141846,1179.624023 
	C1112.141846,1174.166626 1112.141846,1168.770874 1112.141846,1162.947266 
	C1120.788208,1162.947266 1129.194824,1162.947266 1137.578491,1162.947266 
	C1138.702637,1159.876587 1138.107422,1158.510620 1134.960083,1158.654297 
	C1131.972168,1158.790771 1128.973022,1158.681885 1125.978882,1158.681763 
	C1119.752441,1158.681396 1113.526123,1158.681763 1107.400391,1158.681763 
	C1107.400391,1174.952271 1107.400391,1190.353027 1107.400391,1205.973145 
	C1109.001465,1205.884277 1110.257935,1205.814453 1112.066650,1205.714111 
	C1112.066650,1198.365112 1112.066650,1191.312622 1112.066650,1184.011108 
	C1114.946411,1184.011108 1117.255615,1184.011108 1120.541260,1184.011108 
M1227.056152,1201.900269 
	C1218.949219,1201.900269 1210.842285,1201.900269 1202.222168,1201.900269 
	C1202.222168,1187.188354 1202.222168,1173.110352 1202.222168,1159.218384 
	C1198.497192,1157.905762 1197.594116,1159.264160 1197.656128,1162.363281 
	C1197.795898,1169.354126 1197.702515,1176.349854 1197.703003,1183.343506 
	C1197.703613,1190.794800 1197.703125,1198.246094 1197.703125,1205.969971 
	C1207.916260,1205.969971 1217.561157,1205.997559 1227.205322,1205.919678 
	C1228.017822,1205.913208 1228.824585,1205.198853 1229.634155,1204.813354 
	C1229.074951,1203.852783 1228.515869,1202.892090 1227.056152,1201.900269 
M1062.703003,1352.953003 
	C1064.689697,1360.905151 1058.426880,1363.910278 1053.974976,1368.160767 
	C1053.294556,1367.727783 1052.925537,1367.314331 1052.510498,1367.261353 
	C1051.123047,1367.083862 1049.548828,1366.623535 1048.390259,1367.103027 
	C1047.768799,1367.360352 1047.390503,1370.195435 1047.696045,1370.355713 
	C1048.970215,1371.024658 1050.727051,1371.687744 1051.967407,1371.291138 
	C1053.782959,1370.710693 1055.697144,1369.536865 1056.892822,1368.066040 
	C1064.950928,1358.154175 1072.950928,1348.188599 1080.662720,1338.007690 
	C1082.144409,1336.051758 1082.710938,1333.087769 1082.833496,1330.547119 
	C1082.897095,1329.225708 1081.213745,1327.653442 1079.995239,1326.553833 
	C1079.688843,1326.277344 1077.311279,1327.377686 1077.307495,1327.856323 
	C1077.296387,1329.309204 1077.938232,1330.781616 1078.408203,1332.219482 
	C1078.810059,1333.449219 1080.082397,1335.100464 1079.671387,1335.778198 
	C1076.297119,1341.343872 1072.619141,1346.725342 1069.033203,1352.162720 
	C1068.648438,1351.961060 1068.263550,1351.759399 1067.878784,1351.557739 
	C1066.861938,1343.269531 1065.845215,1334.981201 1064.752075,1326.071045 
	C1060.495728,1327.197388 1057.373047,1328.023682 1054.250366,1328.849976 
	C1059.498047,1329.019409 1060.875488,1331.831421 1061.126709,1336.188354 
	C1061.432495,1341.494263 1062.090576,1346.779663 1062.703003,1352.953003 
M602.099121,1344.854492 
	C601.896057,1354.029419 606.954346,1359.088135 614.876404,1357.632568 
	C624.248474,1355.910645 631.793762,1347.030762 631.969666,1337.515991 
	C632.112976,1329.757568 626.466858,1324.960815 618.938110,1326.719360 
	C609.720154,1328.872192 604.520508,1335.090820 602.099121,1344.854492 
M1085.721924,1344.961914 
	C1085.317139,1355.353638 1092.270508,1360.487549 1101.825806,1356.594727 
	C1110.119629,1353.215942 1114.709351,1346.798340 1115.410889,1337.886475 
	C1116.034668,1329.959473 1110.056885,1324.884399 1102.314087,1326.778442 
	C1093.182129,1329.012329 1087.829468,1335.060913 1085.721924,1344.961914 
M998.524597,1326.813232 
	C987.406860,1324.957520 976.057129,1334.859497 975.858459,1346.588257 
	C975.723694,1354.539307 981.591309,1359.347656 989.351624,1357.387939 
	C998.312866,1355.125244 1003.541809,1349.149780 1005.429504,1340.209839 
	C1006.733765,1334.032959 1004.917664,1330.268066 998.524597,1326.813232 
M743.106140,1343.498657 
	C742.488708,1348.307983 742.550537,1352.973389 747.187805,1355.976929 
	C752.156860,1359.195557 757.069092,1357.893066 761.800842,1355.264404 
	C768.434143,1351.579590 771.890442,1345.699097 772.713135,1338.343384 
	C773.612488,1330.302002 767.414307,1324.918701 759.515686,1326.767212 
	C750.911987,1328.780640 745.884888,1334.572510 743.106140,1343.498657 
M893.388184,1351.886841 
	C895.485168,1347.627197 898.487183,1343.567627 899.483459,1339.064453 
	C901.335327,1330.693604 894.598511,1324.763062 886.276001,1326.830688 
	C877.502136,1329.010376 872.271912,1334.955811 870.193909,1343.511719 
	C869.149231,1347.812988 869.480591,1352.243652 873.379761,1355.397339 
	C877.145752,1358.443359 881.436218,1358.482422 885.644043,1356.715820 
	C888.207214,1355.639648 890.468689,1353.845093 893.388184,1351.886841 
M1354.732422,1334.259888 
	C1352.969604,1338.314331 1350.570435,1342.223877 1349.606323,1346.460083 
	C1348.419556,1351.674561 1351.827271,1356.224487 1356.650391,1357.472290 
	C1362.319336,1358.938721 1370.772217,1355.009399 1373.695435,1349.373657 
	C1371.407959,1350.703247 1369.402954,1352.142578 1367.188721,1353.096069 
	C1363.224243,1354.802856 1359.327271,1354.923218 1356.508301,1350.937134 
	C1353.914795,1347.269653 1355.185791,1344.942871 1359.395386,1343.662109 
	C1364.088135,1342.234741 1368.986084,1340.693481 1372.948853,1337.970703 
	C1375.098999,1336.493530 1375.489990,1332.455933 1376.674438,1329.573242 
	C1373.747925,1328.536377 1370.398682,1326.062256 1367.985962,1326.771973 
	C1363.431030,1328.111938 1359.414917,1331.283936 1354.732422,1334.259888 
M729.003906,1356.658081 
	C735.161804,1352.195679 735.911255,1347.974854 731.486206,1341.930298 
	C730.018921,1339.926025 728.002258,1338.273193 726.799622,1336.141968 
	C725.843628,1334.447754 725.233582,1332.200684 725.485718,1330.336426 
	C725.607910,1329.432983 728.283264,1328.004639 729.406982,1328.302979 
	C731.264038,1328.796265 733.110291,1330.239990 734.373779,1331.768433 
	C735.370605,1332.974365 735.484009,1334.910522 735.989807,1336.522339 
	C736.267212,1336.488647 736.544678,1336.454834 736.822083,1336.421021 
	C737.457520,1333.281982 738.092896,1330.142944 738.607971,1327.598389 
	C735.846252,1327.299561 733.662048,1327.317505 731.619446,1326.788696 
	C727.476562,1325.716309 723.952637,1326.463013 721.439941,1329.979858 
	C718.917236,1333.510742 720.090881,1336.929321 722.436218,1340.083008 
	C724.120178,1342.347290 726.305115,1344.352295 727.484436,1346.843262 
	C728.447144,1348.876709 729.010315,1351.732056 728.299377,1353.698120 
	C727.840332,1354.967773 724.470764,1356.265137 722.927856,1355.803711 
	C720.733765,1355.147339 718.810425,1353.071411 717.187744,1351.234253 
	C716.366577,1350.304565 716.458984,1348.567871 716.138367,1347.196045 
	C715.819214,1347.190063 715.500000,1347.183960 715.180847,1347.177979 
	C714.519653,1350.442627 713.858459,1353.707153 713.260437,1356.660034 
	C716.067444,1356.927002 718.527161,1357.308472 720.993164,1357.354004 
	C723.423828,1357.398926 725.860718,1357.103638 729.003906,1356.658081 
M1175.688354,1327.298706 
	C1172.860840,1329.792114 1170.033447,1332.285522 1167.205933,1334.778931 
	C1166.841797,1334.547363 1166.477661,1334.315796 1166.113647,1334.084229 
	C1166.591309,1331.770020 1167.068970,1329.455811 1167.683350,1326.479370 
	C1163.832397,1327.083008 1160.412720,1327.619019 1155.940674,1328.320068 
	C1161.681763,1329.938477 1161.962891,1330.315308 1160.601562,1335.108032 
	C1158.575806,1342.240112 1156.411255,1349.332764 1154.280884,1356.525879 
	C1157.713501,1357.528320 1159.371216,1356.961914 1160.306396,1353.403076 
	C1162.564453,1344.808716 1166.968994,1337.407837 1173.163940,1332.205688 
	C1175.559204,1333.085693 1178.137939,1334.356934 1178.339111,1334.053101 
	C1179.449585,1332.376831 1179.979736,1330.316162 1180.708984,1328.387329 
	C1179.242554,1327.917236 1177.776123,1327.447266 1175.688354,1327.298706 
M1419.292114,1357.058228 
	C1426.215332,1353.065918 1427.367554,1348.258057 1422.775269,1341.964966 
	C1421.211426,1339.821655 1419.318604,1337.921631 1417.662720,1335.841309 
	C1415.829468,1333.537720 1414.833252,1330.984375 1417.841187,1328.983887 
	C1420.708984,1327.077026 1423.398071,1328.138428 1425.131958,1330.832397 
	C1426.205322,1332.499878 1426.621948,1334.589966 1427.784790,1337.696167 
	C1428.683594,1333.307251 1429.326416,1330.168945 1429.843628,1327.643555 
	C1427.024902,1327.294067 1424.693970,1327.194702 1422.456055,1326.686035 
	C1418.483276,1325.783081 1415.113525,1326.583862 1412.727905,1329.937012 
	C1410.371094,1333.249023 1411.186768,1336.588501 1413.390869,1339.656616 
	C1415.136230,1342.086182 1417.444946,1344.205200 1418.732666,1346.838989 
	C1419.713257,1348.844238 1420.242798,1351.720581 1419.522705,1353.675049 
	C1419.051025,1354.955200 1415.692871,1356.264893 1414.161987,1355.800293 
	C1411.963135,1355.132690 1410.043457,1353.044434 1408.416016,1351.199585 
	C1407.565308,1350.235107 1407.593140,1348.495483 1407.224243,1347.105957 
	C1406.897095,1347.162354 1406.570068,1347.218628 1406.242920,1347.275024 
	C1405.689087,1350.615234 1405.135254,1353.955566 1404.630859,1356.997437 
	C1406.996948,1356.997437 1408.858276,1356.960693 1410.717773,1357.005981 
	C1413.323975,1357.069458 1415.928589,1357.193848 1419.292114,1357.058228 
M1288.192017,1335.647705 
	C1288.419189,1335.845825 1288.628540,1336.072754 1288.881958,1336.228027 
	C1288.984009,1336.290283 1289.305054,1336.225342 1289.319458,1336.166992 
	C1290.063354,1333.173462 1290.784912,1330.174316 1291.398071,1327.634277 
	C1288.417358,1327.241699 1285.874756,1326.347412 1283.546509,1326.736206 
	C1280.347534,1327.270630 1276.217407,1327.935547 1274.535522,1330.121338 
	C1273.074707,1332.020020 1273.729980,1336.391113 1274.789795,1339.156128 
	C1275.932983,1342.139160 1278.775024,1344.430908 1280.614258,1347.198242 
	C1282.562866,1350.130249 1283.048828,1353.203247 1279.513184,1355.409790 
	C1276.364258,1357.374878 1271.721436,1355.758667 1270.241089,1352.238281 
	C1269.556396,1350.609863 1269.247314,1348.823364 1268.767944,1347.108521 
	C1268.490234,1347.100708 1268.212524,1347.092773 1267.934937,1347.084961 
	C1267.269287,1350.398804 1266.603516,1353.712524 1266.008911,1356.672974 
	C1268.874146,1356.944946 1271.371338,1356.952148 1273.763306,1357.457153 
	C1278.678589,1358.494751 1282.803589,1357.342041 1285.625977,1353.178711 
	C1288.409424,1349.072754 1286.824097,1345.211548 1284.086792,1341.709839 
	C1282.446045,1339.610962 1280.115234,1337.854370 1279.123657,1335.508911 
	C1278.352051,1333.683594 1279.169922,1331.186279 1279.281250,1328.987671 
	C1281.540161,1329.311035 1284.091309,1329.108887 1285.954102,1330.144653 
	C1287.172485,1330.822266 1287.393555,1333.293579 1288.192017,1335.647705 
M678.541992,1348.809692 
	C681.174866,1342.107544 685.227905,1336.438721 690.469971,1331.293701 
	C691.900513,1332.799927 692.853516,1333.803345 693.914246,1334.920288 
	C697.171448,1333.037842 698.387756,1330.386353 696.617432,1327.488037 
	C696.272644,1326.923584 691.915894,1328.000854 690.147278,1329.314331 
	C687.812744,1331.047852 686.206421,1333.762085 684.287048,1336.054688 
	C683.777771,1335.681152 683.268494,1335.307739 682.759155,1334.934326 
	C683.217285,1332.296265 683.675415,1329.658081 684.227234,1326.480591 
	C680.345459,1327.098267 676.972229,1327.635010 672.681946,1328.317627 
	C675.059021,1329.127563 676.519409,1329.625244 678.604187,1330.335571 
	C676.036316,1339.290405 673.547913,1347.968262 671.059631,1356.645508 
	C678.179626,1358.510620 676.437073,1352.360718 678.541992,1348.809692 
M1393.389526,1328.110718 
	C1398.766357,1328.213745 1399.290283,1332.733032 1401.340454,1336.406616 
	C1401.960938,1333.257446 1402.581299,1330.108276 1403.102295,1327.464355 
	C1400.532715,1327.250244 1398.348389,1327.368408 1396.334595,1326.837891 
	C1392.213867,1325.752563 1388.584595,1326.295898 1386.068848,1329.828491 
	C1383.462036,1333.488647 1384.652466,1337.105347 1387.147949,1340.407349 
	C1388.853394,1342.663696 1390.718506,1344.807007 1392.313477,1347.136841 
	C1394.326050,1350.076294 1394.806396,1353.083374 1391.337280,1355.347046 
	C1388.245483,1357.364624 1383.627808,1355.836792 1382.061035,1352.304688 
	C1381.343872,1350.687988 1381.045288,1348.885498 1380.556885,1347.167358 
	C1380.271118,1347.134399 1379.985474,1347.101562 1379.699707,1347.068604 
	C1379.024902,1350.479614 1378.350220,1353.890747 1377.819824,1356.571777 
	C1380.693115,1356.866699 1383.045410,1356.862061 1385.272827,1357.387329 
	C1390.164795,1358.541016 1394.251343,1357.444946 1397.222534,1353.373413 
	C1400.365479,1349.066650 1398.485229,1345.158569 1395.720215,1341.527344 
	C1394.209473,1339.542969 1392.442383,1337.755127 1390.906616,1335.788208 
	C1388.500366,1332.706665 1388.420410,1330.017944 1393.389526,1328.110718 
M787.151978,1352.210205 
	C786.203552,1352.793579 785.255127,1353.377075 784.306702,1353.960449 
	C783.939148,1353.682251 783.571594,1353.404053 783.204102,1353.125732 
	C787.324829,1338.586426 791.445557,1324.046997 795.760986,1308.820679 
	C791.609253,1309.563354 788.156738,1310.180908 784.704224,1310.798462 
	C789.961426,1311.253418 789.301819,1314.114746 788.268860,1317.574097 
	C785.090454,1328.217773 781.936401,1338.874268 779.132202,1349.619751 
	C778.513062,1351.992432 779.372986,1354.750977 779.551758,1357.331909 
	C782.141541,1356.298462 784.870056,1355.507568 787.266418,1354.136353 
	C788.604980,1353.370361 789.392334,1351.641113 790.428040,1350.345825 
	C790.113342,1350.112427 789.798706,1349.879150 789.484009,1349.645752 
	C788.864563,1350.350830 788.245056,1351.056030 787.151978,1352.210205 
M832.077271,1353.376953 
	C833.261902,1354.851074 834.216248,1357.238525 835.679443,1357.607178 
	C838.643433,1358.354248 843.001831,1353.989258 844.205322,1349.716431 
	C842.270630,1351.366455 840.479675,1352.893921 838.688721,1354.421509 
	C838.203125,1354.174927 837.717529,1353.928345 837.231934,1353.681885 
	C838.493591,1348.997803 839.498352,1344.224243 841.088928,1339.654663 
	C842.700256,1335.025269 841.691589,1328.309570 849.485535,1327.479736 
	C848.018616,1327.208862 846.551697,1326.938110 844.914673,1326.635986 
	C845.644226,1323.718018 846.302490,1321.085083 847.089539,1317.937012 
	C842.665100,1321.889404 838.728333,1325.406250 834.786011,1328.928101 
	C835.516174,1329.114258 836.796692,1329.440796 838.470337,1329.867554 
	C836.317505,1337.627563 834.245056,1345.097778 832.077271,1353.376953 
M1019.147278,1344.970703 
	C1022.415588,1340.345703 1025.683838,1335.720825 1028.952148,1331.095825 
	C1029.249268,1331.599976 1029.546387,1332.104004 1029.843384,1332.608154 
	C1031.419067,1333.078735 1032.994629,1333.549438 1034.570190,1334.020020 
	C1034.984375,1331.745117 1035.398682,1329.470337 1035.812988,1327.195435 
	C1034.030396,1327.465088 1031.928589,1327.234985 1030.540161,1328.121826 
	C1028.493774,1329.428833 1026.799194,1331.406982 1025.258545,1333.341309 
	C1024.321533,1334.517822 1023.955872,1336.149414 1023.333496,1337.576660 
	C1022.668091,1336.983765 1022.002686,1336.390991 1021.337280,1335.798218 
	C1021.971558,1332.845337 1022.605835,1329.892456 1023.348694,1326.433838 
	C1019.317749,1327.088623 1015.984497,1327.630127 1011.763245,1328.315918 
	C1017.682678,1330.002808 1017.728638,1330.015869 1016.202332,1335.405762 
	C1014.194092,1342.497681 1012.104431,1349.566528 1010.051575,1356.639282 
	C1013.760559,1357.565918 1015.541260,1356.663330 1016.150818,1353.138550 
	C1016.594788,1350.570801 1017.923828,1348.156128 1019.147278,1344.970703 
M854.816589,1342.045288 
	C853.756165,1345.877563 852.533081,1349.674438 851.688782,1353.553711 
	C851.055664,1356.462402 852.811157,1358.674805 855.487061,1357.516602 
	C858.683838,1356.132935 861.289856,1353.384033 864.151794,1351.226440 
	C863.831421,1350.861694 863.510986,1350.496826 863.190613,1350.131958 
	C861.574951,1351.351562 859.959351,1352.571045 858.343689,1353.790527 
	C857.906860,1353.576660 857.470093,1353.362793 857.033325,1353.148926 
	C859.394043,1344.389160 861.754761,1335.629395 864.249146,1326.373657 
	C860.049133,1327.059448 856.647034,1327.614868 853.244934,1328.170288 
	C858.149963,1329.750610 858.189148,1329.781494 856.933167,1334.560181 
	C856.343506,1336.803467 855.643250,1339.017700 854.816589,1342.045288 
M1302.935425,1349.370605 
	C1305.007935,1341.902466 1307.080566,1334.434326 1309.317871,1326.372192 
	C1305.084717,1327.058472 1301.650635,1327.615112 1298.216553,1328.171875 
	C1303.205200,1328.384521 1303.090698,1331.009277 1301.983154,1334.511597 
	C1300.529175,1339.108887 1299.080933,1343.725098 1298.008301,1348.419556 
	C1297.333252,1351.374634 1294.199829,1355.541260 1298.480469,1357.081787 
	C1300.623413,1357.853027 1304.299316,1354.622803 1307.156128,1352.983276 
	C1307.939575,1352.533813 1308.269897,1351.294434 1308.808105,1350.417480 
	C1308.639526,1350.273804 1308.470825,1350.130249 1308.302246,1349.986572 
	C1306.694824,1351.276733 1305.087402,1352.566772 1302.711426,1354.473633 
	C1302.711426,1352.488403 1302.711426,1351.455200 1302.935425,1349.370605 
M1307.919067,1313.119751 
	C1307.349121,1314.770142 1306.574829,1316.397217 1306.380249,1318.090698 
	C1306.340942,1318.432373 1308.766602,1319.678223 1309.578125,1319.344727 
	C1310.675659,1318.893921 1312.220337,1316.945557 1311.956787,1316.305176 
	C1311.407715,1314.972046 1309.796997,1314.076050 1307.919067,1313.119751 
M866.584473,1318.277832 
	C866.137634,1316.587402 865.853455,1314.816040 865.090210,1313.282959 
	C864.956848,1313.015381 862.229248,1313.367432 861.730225,1314.118286 
	C861.057434,1315.130493 860.869751,1317.732422 861.381348,1318.016235 
	C862.682922,1318.738159 864.488831,1318.550781 866.584473,1318.277832 
z"/>
<path fill="#FBCF30" opacity="1.000000" stroke="none" 
	d="
M1003.999878,1090.835205 
	C964.842407,1090.835083 926.184937,1090.835083 886.997925,1090.835083 
	C886.915955,1089.178589 886.840027,1087.644531 886.724670,1085.313843 
	C892.366150,1085.313843 897.474365,1085.427368 902.575989,1085.293579 
	C922.173828,1084.780029 935.357300,1074.862183 943.143127,1057.266113 
	C948.897461,1044.261108 951.125000,1030.448120 951.174744,1016.387085 
	C951.403198,951.731628 951.391174,887.075317 951.453857,822.419312 
	C951.454468,821.772400 951.299194,821.125427 951.176208,820.160522 
	C894.233398,820.160522 837.352844,820.160522 779.991699,820.160522 
	C779.991699,821.762878 779.991638,823.218323 779.991699,824.673706 
	C779.995239,873.666443 779.950256,922.659241 780.030884,971.651855 
	C780.056213,987.051941 781.782104,1002.222839 787.537537,1016.695312 
	C795.244324,1036.074829 809.534302,1046.158936 830.357056,1046.911377 
	C835.000122,1047.079102 839.654480,1046.936035 844.138550,1046.936035 
	C845.898010,1050.681763 844.393616,1051.594971 841.150879,1051.543579 
	C834.486877,1051.437866 827.820007,1051.507080 821.154358,1051.507446 
	C775.827759,1051.509888 730.501099,1051.517456 685.174500,1051.504395 
	C682.507751,1051.503540 678.986450,1052.304199 680.616455,1046.994629 
	C684.186523,1046.994629 687.825012,1047.012085 691.463318,1046.991821 
	C715.678284,1046.857666 731.901917,1035.776855 738.725586,1012.530396 
	C742.247253,1000.533020 744.666138,987.728149 744.724915,975.274597 
	C745.206482,873.291992 745.040100,771.306274 744.999512,669.321472 
	C744.993469,654.105774 743.534058,639.062134 738.049316,624.668701 
	C730.259644,604.226807 715.300781,593.817749 693.583801,592.873108 
	C690.254883,592.728333 686.917175,592.578369 683.589600,592.664490 
	C680.204529,592.752075 679.616882,591.148804 680.474121,588.083557 
	C812.785400,588.083557 945.024902,588.083557 1077.738770,588.083557 
	C1077.738770,601.029724 1077.738770,613.774841 1077.738770,627.000061 
	C1079.996582,627.000061 1081.786377,627.000183 1083.576172,627.000061 
	C1103.406616,626.998657 1123.237183,626.934753 1143.067261,627.011841 
	C1166.980225,627.104736 1190.270264,630.844238 1211.899048,641.371094 
	C1255.522339,662.603027 1281.970581,697.758057 1290.454102,745.102783 
	C1299.304810,794.497742 1287.378784,839.503296 1254.703491,877.945801 
	C1229.708984,907.351746 1196.652710,921.650940 1158.586182,924.946045 
	C1152.623535,925.462158 1146.605591,925.479980 1140.613037,925.484680 
	C1091.453613,925.523499 1042.294189,925.504578 993.134827,925.503235 
	C991.021179,925.503174 988.907471,925.503235 986.686279,925.503235 
	C986.501770,926.980957 986.310425,927.779358 986.315735,928.576538 
	C986.527832,960.398743 986.387939,992.229675 987.149231,1024.039062 
	C987.501892,1038.773682 990.899414,1053.153076 999.163757,1065.768555 
	C1007.054321,1077.813721 1018.327332,1084.492188 1032.829834,1085.168823 
	C1038.642944,1085.440063 1044.479492,1085.213623 1050.807495,1085.213623 
	C1050.943481,1087.158447 1051.051514,1088.701904 1051.200684,1090.835205 
	C1035.355957,1090.835205 1019.927917,1090.835205 1003.999878,1090.835205 
M986.092712,787.637512 
	C986.114746,798.540344 986.136841,809.443237 986.257507,821.235291 
	C986.257507,853.481018 986.257507,885.726746 986.257507,918.496948 
	C988.974243,918.496948 990.936035,918.497192 992.897766,918.497009 
	C1032.548828,918.493103 1072.201050,918.656555 1111.850098,918.370544 
	C1122.126221,918.296509 1132.540771,917.644775 1142.636963,915.836060 
	C1186.580322,907.964111 1219.453735,884.398254 1239.825073,844.490356 
	C1258.554565,807.799255 1261.434814,769.066589 1252.152832,729.330078 
	C1244.972046,698.589172 1228.883423,673.716614 1201.889771,656.495300 
	C1177.106201,640.684021 1149.504883,634.529968 1120.652100,634.138916 
	C1077.177734,633.549805 1033.690674,633.889526 990.209106,633.850708 
	C989.081482,633.849731 987.953796,634.037476 986.288452,634.184753 
	C986.288452,636.310791 986.289917,638.265564 986.288208,640.220398 
	C986.246460,689.032654 986.204407,737.844910 986.092712,787.637512 
M951.471680,733.500427 
	C951.470581,726.336670 951.528992,719.172241 951.455933,712.009216 
	C951.302795,696.995728 950.424866,682.078186 945.950012,667.581909 
	C938.671997,644.004578 923.023987,632.244995 898.381104,632.008789 
	C895.049500,631.976807 891.717224,632.006165 888.385742,631.968506 
	C887.933044,631.963318 887.482910,631.731750 886.984802,631.591858 
	C886.984802,630.059326 886.984802,628.654846 886.984802,626.703125 
	C944.172119,626.703125 1001.057678,626.703125 1057.943359,626.703125 
	C1033.955688,616.961853 1009.169739,610.703613 983.963745,606.024597 
	C931.981506,596.375122 879.448914,594.120300 826.751770,595.129333 
	C810.923096,595.432434 798.428589,603.131653 790.579102,617.266235 
	C782.078979,632.572388 780.074219,649.383850 780.024841,666.500793 
	C779.913879,704.984314 779.992065,743.468506 779.993286,781.952393 
	C779.993347,783.563843 779.993286,785.175232 779.993286,786.804199 
	C837.431274,786.804199 894.304626,786.804199 951.471741,786.804199 
	C951.471741,769.130310 951.471741,751.815369 951.471680,733.500427 
z"/>
<path fill="#49DDF1" opacity="1.000000" stroke="none" 
	d="
M1409.208008,1193.391602 
	C1407.697021,1196.956055 1406.470337,1200.238525 1404.894165,1203.343506 
	C1404.335693,1204.443726 1402.945679,1205.760132 1401.898315,1205.792847 
	C1400.866089,1205.825073 1399.268921,1204.581177 1398.807007,1203.513306 
	C1392.482178,1188.890747 1386.311157,1174.201660 1380.030273,1159.358154 
	C1383.302856,1157.968140 1384.942993,1158.748413 1386.201416,1161.951172 
	C1390.515991,1172.932129 1395.118774,1183.800049 1399.625977,1194.705078 
	C1400.236450,1196.182129 1400.929321,1197.625122 1402.077148,1200.182495 
	C1405.154053,1192.871704 1407.930298,1186.577881 1410.384766,1180.160889 
	C1410.820557,1179.021240 1410.115601,1177.291382 1409.597168,1175.967285 
	C1407.478394,1170.557007 1405.227539,1165.198486 1403.022217,1159.813232 
	C1407.322021,1158.347168 1406.790405,1158.126099 1409.507568,1164.980347 
	C1410.730469,1168.065796 1411.989990,1171.136597 1413.282349,1174.336670 
	C1418.702515,1170.446289 1415.723999,1160.541626 1425.185303,1158.444458 
	C1422.573120,1164.828613 1420.128174,1170.070923 1418.339966,1175.528198 
	C1417.602051,1177.780151 1417.641602,1180.717651 1418.430542,1182.954102 
	C1420.392090,1188.513794 1422.987793,1193.849609 1425.801514,1200.370972 
	C1428.518433,1193.707886 1430.815552,1188.061035 1433.123169,1182.418701 
	C1435.892212,1175.648193 1438.786621,1168.925659 1441.392334,1162.093018 
	C1442.563965,1159.021118 1444.150757,1157.786377 1447.646362,1159.383179 
	C1441.347290,1174.272949 1435.112061,1189.099976 1428.739624,1203.867676 
	C1428.334595,1204.806274 1426.769043,1205.939331 1425.910522,1205.816284 
	C1424.760864,1205.651611 1423.289307,1204.570435 1422.797729,1203.497070 
	C1419.840698,1197.041382 1417.124756,1190.475220 1413.880615,1182.901489 
	C1412.087036,1186.918945 1410.720825,1189.979248 1409.208008,1193.391602 
z"/>
<path fill="#49DDF1" opacity="1.000000" stroke="none" 
	d="
M976.192566,1195.921997 
	C976.192566,1199.403198 976.192566,1202.398926 976.192566,1207.141968 
	C973.456787,1205.509155 971.135193,1204.811035 969.866211,1203.254639 
	C961.656677,1193.186401 953.680481,1182.927856 945.616699,1172.740479 
	C944.614990,1171.474976 943.547729,1170.261230 941.687927,1168.041260 
	C941.687927,1181.165894 941.687927,1193.151123 941.687927,1205.571289 
	C939.784058,1205.729980 938.445618,1205.841553 936.695923,1205.987305 
	C936.695923,1191.584839 936.695984,1177.614258 936.695984,1163.643799 
	C936.695984,1162.166504 936.695923,1160.689087 936.695923,1157.526611 
	C939.432617,1159.298706 941.537537,1160.051270 942.735352,1161.535645 
	C950.893372,1171.646118 958.854675,1181.915039 966.896118,1192.119629 
	C967.989380,1193.507080 969.175781,1194.820801 971.146484,1197.144043 
	C971.351074,1194.451050 971.563843,1192.917480 971.568542,1191.383301 
	C971.598328,1181.718994 971.676270,1172.053101 971.527710,1162.391113 
	C971.477844,1159.145020 972.575134,1158.086060 976.192566,1159.280884 
	C976.192566,1171.209839 976.192566,1183.323120 976.192566,1195.921997 
z"/>
<path fill="#49DDF1" opacity="1.000000" stroke="none" 
	d="
M865.328979,1203.411011 
	C855.168030,1208.197266 845.631287,1206.617432 839.009888,1199.309814 
	C831.717651,1191.261841 830.466309,1178.904419 835.998291,1169.569946 
	C841.149963,1160.877197 850.459534,1156.595093 859.764343,1158.965454 
	C868.520935,1161.196411 873.572449,1167.378784 875.931152,1175.740845 
	C878.602905,1185.212769 876.068970,1193.501099 869.180115,1200.454102 
	C868.137085,1201.506836 866.825745,1202.293701 865.328979,1203.411011 
M840.890381,1194.435791 
	C844.045776,1198.874268 848.158997,1201.726807 853.740967,1202.001343 
	C867.155029,1202.660767 876.322754,1187.395630 870.490295,1173.889893 
	C867.570374,1167.128418 862.624268,1162.800781 854.817383,1162.744995 
	C846.996948,1162.688965 842.060608,1166.959106 839.062073,1173.721313 
	C836.012451,1180.598877 836.721619,1187.349731 840.890381,1194.435791 
z"/>
<path fill="#49DDF1" opacity="1.000000" stroke="none" 
	d="
M1293.816162,1203.276611 
	C1280.719849,1193.658813 1278.764404,1176.050903 1289.390869,1165.124634 
	C1295.185547,1159.166260 1302.281982,1156.751221 1310.358032,1159.107422 
	C1319.153564,1161.673462 1324.156738,1168.113770 1326.173950,1176.826660 
	C1328.498901,1186.869019 1325.506836,1195.424561 1317.541016,1201.786011 
	C1310.329468,1207.545044 1302.279053,1207.711060 1293.816162,1203.276611 
M1316.997925,1196.456299 
	C1318.517700,1193.528198 1320.574463,1190.752808 1321.458984,1187.644043 
	C1324.384888,1177.360596 1318.538330,1165.947632 1309.346802,1163.254517 
	C1300.440063,1160.645020 1291.503296,1165.849121 1288.321411,1175.498291 
	C1285.360474,1184.476929 1288.599487,1194.652588 1295.948853,1199.460815 
	C1302.395752,1203.678589 1309.752197,1202.796875 1316.997925,1196.456299 
z"/>
<path fill="#48DAEE" opacity="1.000000" stroke="none" 
	d="
M590.719238,1181.566162 
	C587.562134,1186.795654 583.067505,1188.692017 577.502258,1188.604736 
	C573.200378,1188.537354 568.896667,1188.591431 564.137451,1188.591431 
	C564.137451,1194.318115 564.137451,1199.731689 564.137451,1205.555664 
	C562.371216,1205.731689 561.016724,1205.866577 559.342773,1206.033447 
	C559.342773,1190.248901 559.342773,1174.857422 559.342773,1159.146118 
	C567.052307,1159.146118 574.868103,1158.370605 582.447815,1159.375488 
	C589.317932,1160.286255 596.389160,1170.939941 590.719238,1181.566162 
M587.666321,1170.301880 
	C584.121399,1162.078857 581.371826,1162.149170 564.284912,1163.438721 
	C564.284912,1170.306519 564.284912,1177.174561 564.284912,1184.244141 
	C568.320740,1184.244141 571.973755,1184.251465 575.626770,1184.242554 
	C585.057922,1184.219604 588.291565,1180.740967 587.666321,1170.301880 
z"/>
<path fill="#49DDF1" opacity="1.000000" stroke="none" 
	d="
M762.967407,1175.037476 
	C766.568176,1170.204834 769.788269,1165.537231 773.444641,1161.240845 
	C774.741028,1159.717529 777.099915,1159.098633 778.973755,1158.066895 
	C779.277161,1158.539551 779.580505,1159.012207 779.883911,1159.484985 
	C774.132080,1167.126831 768.380310,1174.768555 762.454163,1182.641968 
	C768.211792,1190.314087 773.860657,1197.841309 779.509583,1205.368530 
	C779.141235,1205.833740 778.772888,1206.298828 778.404602,1206.764038 
	C776.440491,1205.518066 774.006592,1204.659546 772.600037,1202.953979 
	C768.290955,1197.728882 764.376343,1192.178589 760.299805,1186.743408 
	C752.457275,1192.105103 751.091736,1203.734619 741.181885,1206.421997 
	C740.806458,1206.073242 740.430969,1205.724487 740.055542,1205.375732 
	C745.712646,1197.843994 751.369751,1190.312134 757.118896,1182.657837 
	C751.251282,1174.855957 745.500183,1167.209106 739.749084,1159.562256 
	C740.075562,1159.067505 740.402039,1158.572876 740.728516,1158.078125 
	C742.673645,1159.209595 745.129883,1159.920288 746.470764,1161.549194 
	C750.994873,1167.044678 755.122925,1172.866455 759.679993,1178.932739 
	C760.874023,1177.542725 761.816345,1176.445801 762.967407,1175.037476 
z"/>
<path fill="#49DDF1" opacity="1.000000" stroke="none" 
	d="
M678.520020,1186.317139 
	C681.220215,1192.795410 683.739746,1198.935303 686.290771,1205.151978 
	C682.588867,1207.253540 681.315247,1205.217285 680.099304,1202.297974 
	C675.436523,1191.103027 675.380432,1191.126465 663.755798,1191.125488 
	C654.410583,1191.124878 654.510376,1191.167847 650.741516,1199.892212 
	C649.525513,1202.707153 649.572754,1207.489380 643.646729,1205.510742 
	C644.402466,1203.545532 645.098572,1201.595337 645.895081,1199.687012 
	C651.145386,1187.108154 656.373230,1174.519531 661.747681,1161.993774 
	C662.304565,1160.695923 664.010986,1158.753784 664.767944,1158.927124 
	C666.146362,1159.242920 667.721252,1160.697876 668.325134,1162.069092 
	C671.807373,1169.975586 675.029297,1177.996582 678.520020,1186.317139 
M657.901917,1181.415649 
	C657.194275,1183.194458 656.486694,1184.973267 655.653809,1187.066895 
	C662.135986,1187.066895 667.966675,1187.066895 674.316101,1187.066895 
	C671.210876,1179.474854 668.327332,1172.425049 665.011658,1164.318604 
	C662.367310,1170.616943 660.255737,1175.646362 657.901917,1181.415649 
z"/>
<path fill="#49DDF1" opacity="1.000000" stroke="none" 
	d="
M1219.997437,1326.364136 
	C1227.433350,1327.289185 1230.127197,1330.504395 1229.265259,1337.386841 
	C1228.220459,1345.728271 1223.843506,1351.929688 1216.460815,1355.937134 
	C1211.707520,1358.517212 1206.929932,1358.254028 1202.084473,1355.967041 
	C1199.565674,1354.778076 1198.787964,1353.511108 1199.700073,1350.566406 
	C1203.094604,1339.605957 1206.060425,1328.513550 1209.345947,1317.518188 
	C1210.393799,1314.011475 1210.758301,1311.305420 1205.768799,1310.746704 
	C1209.244995,1310.148804 1212.721191,1309.550903 1216.794678,1308.850220 
	C1214.948120,1315.850708 1213.267578,1322.221558 1211.353149,1329.479126 
	C1214.996704,1328.125366 1217.289062,1327.273682 1219.997437,1326.364136 
M1222.637329,1343.860718 
	C1222.981323,1342.402588 1223.430786,1340.959839 1223.648438,1339.483154 
	C1224.172974,1335.925171 1224.530396,1331.976929 1220.683472,1330.258179 
	C1216.567749,1328.419067 1213.361084,1331.005005 1210.785645,1334.115356 
	C1210.055298,1334.997314 1209.391602,1336.041382 1209.052368,1337.122437 
	C1207.272949,1342.793701 1205.607666,1348.500732 1203.920044,1354.137939 
	C1208.322998,1356.882568 1212.546387,1356.953613 1215.859009,1353.822388 
	C1218.532227,1351.295532 1220.198975,1347.703857 1222.637329,1343.860718 
M1211.170288,1329.970093 
	C1211.545166,1330.017334 1212.109253,1330.233521 1212.252197,1330.073608 
	C1212.482422,1329.815674 1212.435181,1329.309692 1212.505127,1328.908569 
	C1212.112549,1328.976929 1211.719849,1329.045166 1211.170288,1329.970093 
z"/>
<path fill="#48DAEE" opacity="1.000000" stroke="none" 
	d="
M1341.433594,1351.803955 
	C1342.250732,1351.062988 1342.690918,1350.661377 1343.131104,1350.259766 
	C1343.376587,1350.440918 1343.621948,1350.622192 1343.867432,1350.803345 
	C1342.948120,1351.983521 1342.260376,1353.565430 1341.059814,1354.257568 
	C1338.792236,1355.564575 1336.229736,1356.359985 1333.789673,1357.367920 
	C1333.613159,1354.905273 1332.899902,1352.333740 1333.372925,1350.002930 
	C1334.327393,1345.300415 1335.977295,1340.742310 1337.233154,1336.095703 
	C1337.682739,1334.432495 1337.822876,1332.685425 1338.104248,1330.976685 
	C1337.701294,1330.660767 1337.298340,1330.344849 1336.895386,1330.029053 
	C1334.877563,1331.452026 1332.189697,1332.449585 1330.965820,1334.376831 
	C1327.083008,1340.491699 1323.340210,1346.770630 1320.375977,1353.360596 
	C1318.964844,1356.498291 1317.666382,1357.563477 1314.162354,1356.596680 
	C1316.260376,1349.286377 1318.304077,1341.974854 1320.471802,1334.700439 
	C1321.408569,1331.556641 1321.807861,1328.937622 1317.106079,1328.281250 
	C1320.470703,1327.711914 1323.835327,1327.142578 1327.648438,1326.497437 
	C1327.067383,1329.524170 1326.600220,1331.957397 1326.133057,1334.390625 
	C1326.551514,1334.586304 1326.969971,1334.782104 1327.388428,1334.977783 
	C1328.531494,1333.903564 1329.634155,1332.781982 1330.826782,1331.766113 
	C1332.710327,1330.161987 1334.474731,1328.266724 1336.636719,1327.194580 
	C1338.043945,1326.496704 1340.677124,1326.345825 1341.656738,1327.206665 
	C1342.835205,1328.242188 1343.565186,1330.763794 1343.225952,1332.376221 
	C1341.997192,1338.216797 1340.226807,1343.942749 1338.687622,1349.719238 
	C1338.135010,1351.792847 1337.846802,1353.702393 1341.433594,1351.803955 
z"/>
<path fill="#48DAEE" opacity="1.000000" stroke="none" 
	d="
M908.373840,1329.471924 
	C907.750000,1329.086304 907.503418,1328.701416 907.256775,1328.316528 
	C910.451904,1327.734619 913.647034,1327.152588 917.371582,1326.474243 
	C916.699951,1329.866577 916.177185,1332.507202 915.654419,1335.147705 
	C916.071533,1335.359497 916.488647,1335.571289 916.905762,1335.783203 
	C918.183838,1334.397827 919.382324,1332.926758 920.760315,1331.649292 
	C922.455994,1330.077515 924.112610,1328.303955 926.120239,1327.260742 
	C930.694153,1324.884277 933.936707,1327.108887 933.000244,1332.166626 
	C932.004028,1337.546143 930.222717,1342.778320 928.841064,1348.089600 
	C928.400513,1349.783203 928.141479,1351.524170 927.515320,1354.671509 
	C930.193909,1352.559326 931.681335,1351.386353 933.168701,1350.213501 
	C933.322937,1350.329590 933.477112,1350.445679 933.631287,1350.561768 
	C933.025757,1351.501221 932.633301,1352.786865 931.774719,1353.315308 
	C929.222900,1354.886353 925.830444,1357.898804 923.959351,1357.191772 
	C919.899719,1355.657593 922.760742,1351.682617 923.414673,1348.894409 
	C924.797485,1342.998169 926.673340,1337.217529 928.394348,1331.224609 
	C921.197876,1330.741089 916.631531,1336.933594 908.602478,1356.823975 
	C907.218140,1356.823975 905.768677,1356.823975 903.867493,1356.823975 
	C906.060791,1349.105347 908.185486,1341.623413 910.313660,1334.142334 
	C910.858887,1332.225708 911.890991,1330.153198 908.373840,1329.471924 
z"/>
<path fill="#48DAEE" opacity="1.000000" stroke="none" 
	d="
M1243.549316,1339.436035 
	C1242.243652,1344.102051 1241.071167,1348.387573 1239.898682,1352.672974 
	C1240.298462,1353.086182 1240.698242,1353.499512 1241.098022,1353.912720 
	C1243.119507,1352.683472 1245.886353,1351.929199 1247.027466,1350.138672 
	C1251.006714,1343.895020 1254.672974,1337.415283 1257.934448,1330.768311 
	C1259.278198,1328.029907 1260.152222,1326.045288 1264.058838,1327.678955 
	C1261.688721,1336.220215 1259.296875,1344.839722 1256.904907,1353.459229 
	C1257.335938,1353.696289 1257.766968,1353.933350 1258.197998,1354.170410 
	C1259.667725,1352.863770 1261.137329,1351.557129 1262.788940,1350.088867 
	C1261.241333,1354.693237 1256.783081,1358.891113 1254.289307,1357.623657 
	C1248.821289,1354.844604 1254.347046,1350.250122 1252.742065,1345.984497 
	C1251.321045,1347.749878 1250.232178,1349.340942 1248.903564,1350.697144 
	C1246.937134,1352.704590 1245.028931,1354.936279 1242.657349,1356.321655 
	C1241.035889,1357.268921 1238.119995,1357.786987 1236.790649,1356.931274 
	C1235.529785,1356.119263 1234.850342,1353.130371 1235.191528,1351.342285 
	C1236.217163,1345.967773 1237.884155,1340.716919 1239.259888,1335.407227 
	C1239.662964,1333.851074 1239.928711,1332.259155 1240.578003,1329.146851 
	C1237.835938,1331.297485 1236.266724,1332.528198 1234.697510,1333.758911 
	C1234.476807,1333.610718 1234.256104,1333.462524 1234.035400,1333.314209 
	C1235.049316,1332.023926 1235.809082,1330.262817 1237.133667,1329.547607 
	C1239.431763,1328.306396 1242.079224,1327.712402 1244.580322,1326.847046 
	C1244.752808,1329.148682 1245.156128,1331.463745 1245.024170,1333.747803 
	C1244.920654,1335.536743 1244.154297,1337.287598 1243.549316,1339.436035 
z"/>
<path fill="#48DAEE" opacity="1.000000" stroke="none" 
	d="
M657.028809,1340.798828 
	C658.533875,1337.070312 660.164795,1333.754028 661.120789,1330.253418 
	C662.027100,1326.935059 663.906799,1326.716919 667.137817,1327.416626 
	C664.683167,1336.265259 662.292664,1344.882935 659.902100,1353.500610 
	C660.343323,1353.724121 660.784485,1353.947754 661.225708,1354.171265 
	C662.682983,1352.856201 664.140259,1351.541260 665.597473,1350.226196 
	C665.787231,1350.369385 665.976929,1350.512451 666.166626,1350.655518 
	C665.531982,1351.678711 665.132874,1353.076660 664.216980,1353.652344 
	C661.818176,1355.159790 659.193787,1356.308228 656.659363,1357.599731 
	C656.394104,1355.044434 656.066467,1352.493408 655.893433,1349.931763 
	C655.821289,1348.864136 656.078369,1347.774170 656.331848,1345.224365 
	C654.268311,1347.802856 653.194031,1349.424805 651.843140,1350.768677 
	C649.735168,1352.865845 647.650146,1355.126099 645.142578,1356.627686 
	C643.697510,1357.493042 640.929260,1357.751099 639.695923,1356.908081 
	C638.507812,1356.096313 637.823120,1353.376953 638.146423,1351.738159 
	C639.238159,1346.203613 640.896484,1340.781860 642.292236,1335.305298 
	C642.688477,1333.750488 642.928040,1332.155640 643.551453,1328.999756 
	C640.787598,1331.253174 639.238098,1332.516602 637.688599,1333.779907 
	C637.521301,1333.670654 637.354065,1333.561401 637.186829,1333.452148 
	C637.826294,1332.445435 638.233643,1331.031372 639.149353,1330.509521 
	C641.732056,1329.038086 644.523438,1327.932983 647.232544,1326.683472 
	C647.445374,1329.404297 648.292664,1332.261353 647.744019,1334.818848 
	C646.443542,1340.881714 644.480713,1346.802490 642.486145,1353.837158 
	C651.046814,1352.309448 653.159363,1345.842773 657.028809,1340.798828 
z"/>
<path fill="#48DAEE" opacity="1.000000" stroke="none" 
	d="
M1138.315063,1347.056885 
	C1135.339355,1350.158447 1132.623291,1353.593506 1129.267334,1356.206909 
	C1127.810913,1357.341064 1124.634155,1357.566528 1123.002075,1356.724854 
	C1121.883545,1356.148071 1121.456787,1352.896606 1121.812378,1351.051147 
	C1122.784546,1346.005127 1124.347656,1341.074097 1125.647827,1336.089844 
	C1126.090942,1334.390747 1126.446777,1332.668945 1125.811768,1330.181763 
	C1124.315796,1331.327148 1122.819824,1332.472534 1121.323853,1333.617920 
	C1121.136230,1333.444458 1120.948608,1333.271118 1120.760864,1333.097778 
	C1121.583618,1332.003052 1122.179321,1330.468628 1123.275024,1329.902832 
	C1125.740601,1328.630249 1128.454102,1327.837646 1131.066772,1326.849731 
	C1131.215210,1329.331055 1131.873047,1331.913940 1131.402954,1334.271973 
	C1130.495483,1338.824951 1128.900024,1343.237305 1127.697510,1347.736694 
	C1127.248901,1349.415649 1127.101685,1351.175049 1126.817017,1352.897827 
	C1127.199097,1353.265869 1127.581177,1353.633911 1127.963257,1354.001953 
	C1129.850464,1352.748901 1132.400024,1351.915039 1133.505737,1350.167603 
	C1137.466187,1343.908691 1141.269775,1337.497925 1144.439331,1330.815796 
	C1145.810547,1327.925049 1146.743408,1326.198120 1150.592285,1327.584229 
	C1148.251343,1336.033691 1145.893799,1344.542603 1143.536255,1353.051514 
	C1143.918335,1353.304443 1144.300415,1353.557373 1144.682495,1353.810303 
	C1146.215454,1352.618408 1147.748413,1351.426514 1150.274414,1349.462280 
	C1149.233154,1351.369873 1148.977417,1352.596191 1148.245850,1353.042725 
	C1145.583862,1354.667480 1142.762817,1356.031616 1140.001831,1357.494141 
	C1139.827759,1354.744995 1139.653564,1351.995972 1139.697876,1348.557617 
	C1139.813843,1347.193115 1139.711426,1346.517578 1139.609009,1345.842163 
	C1139.177734,1346.247070 1138.746338,1346.651978 1138.315063,1347.056885 
z"/>
<path fill="#48DAEE" opacity="1.000000" stroke="none" 
	d="
M958.519043,1351.292358 
	C960.402100,1344.007446 962.146851,1337.109497 963.980957,1329.858521 
	C962.071838,1329.514038 960.400146,1329.212402 958.728394,1328.910645 
	C966.059692,1327.338257 966.537231,1320.051880 970.412659,1315.829590 
	C972.988647,1313.023193 976.472229,1310.761230 979.974915,1309.226196 
	C981.525269,1308.546509 984.250305,1310.035889 986.178223,1311.044922 
	C986.746155,1311.342163 986.710938,1313.458130 986.367065,1314.557861 
	C986.187988,1315.130493 984.248962,1315.832031 983.951843,1315.557739 
	C983.155396,1314.822510 982.737793,1313.622192 982.328247,1312.546143 
	C982.132019,1312.030396 982.294556,1311.377930 982.294556,1310.773804 
	C975.951782,1311.058228 972.092468,1316.515747 970.842896,1326.616699 
	C972.118713,1326.946655 973.412292,1327.281128 974.705872,1327.615601 
	C967.629211,1328.527832 968.479858,1334.485718 967.063843,1338.846558 
	C964.657959,1346.255737 962.706787,1353.851685 959.716003,1361.015015 
	C958.263000,1364.494995 955.150513,1367.458008 952.273804,1370.091919 
	C950.883362,1371.364990 948.254944,1371.882324 946.276733,1371.710449 
	C944.927856,1371.593018 943.734314,1369.689087 942.471313,1368.583984 
	C943.332275,1367.722900 944.193237,1366.861816 945.054138,1366.000610 
	C946.005615,1367.132690 946.957092,1368.264771 948.592468,1370.210571 
	C951.390198,1370.453857 953.344666,1367.651733 954.529175,1364.546387 
	C956.120422,1360.374756 957.124573,1355.978882 958.519043,1351.292358 
z"/>
<path fill="#49DDF1" opacity="1.000000" stroke="none" 
	d="
M584.768799,1342.416748 
	C587.672180,1332.490723 583.323059,1316.250366 576.319702,1311.316650 
	C581.898193,1311.316650 587.057617,1311.316650 592.217041,1311.316650 
	C586.104553,1312.737549 587.382263,1316.721924 588.745789,1320.850708 
	C589.928284,1324.431274 590.926819,1328.072632 592.290222,1332.635986 
	C596.788879,1326.060181 600.755493,1320.261841 605.001709,1314.055054 
	C602.842834,1313.093628 601.565674,1312.524902 599.162781,1311.454834 
	C604.659973,1311.454834 609.017395,1311.454834 612.896545,1311.454834 
	C600.533752,1322.072266 591.249573,1334.874634 588.500000,1351.562500 
	C588.239258,1353.145142 590.946106,1355.216797 592.069275,1356.775635 
	C587.122314,1356.775635 581.200317,1356.775635 575.278381,1356.775635 
	C583.008179,1355.230469 582.474487,1348.114380 584.768799,1342.416748 
z"/>
<path fill="#49DDF1" opacity="1.000000" stroke="none" 
	d="
M821.505981,1353.809082 
	C822.821411,1352.568237 824.136780,1351.327393 825.452148,1350.086548 
	C825.698730,1350.255249 825.945312,1350.424072 826.191895,1350.592773 
	C825.205139,1351.905273 824.471130,1353.615723 823.174011,1354.439697 
	C821.078613,1355.770874 818.612732,1356.518921 816.303284,1357.513184 
	C816.034973,1355.089233 815.622437,1352.669312 815.554443,1350.239746 
	C815.515930,1348.864868 816.043152,1347.474243 815.585205,1345.810425 
	C813.839539,1347.975708 812.243835,1350.288452 810.303345,1352.262207 
	C808.577698,1354.017456 806.655457,1355.759888 804.491882,1356.866455 
	C800.002991,1359.162842 797.073853,1357.172852 797.887451,1352.206055 
	C798.716736,1347.143799 800.332886,1342.211548 801.580078,1337.216187 
	C802.127563,1335.022705 802.614380,1332.814331 802.187622,1329.982910 
	C800.629272,1331.208740 799.070923,1332.434692 797.512573,1333.660645 
	C797.328003,1333.525635 797.143433,1333.390625 796.958923,1333.255737 
	C797.747803,1332.166626 798.306274,1330.656128 799.372009,1330.073608 
	C801.822937,1328.733765 804.520630,1327.845215 807.118164,1326.773438 
	C807.325073,1329.367432 808.159485,1332.102295 807.615540,1334.527832 
	C806.248413,1340.624268 804.258606,1346.580811 802.518494,1352.593506 
	C802.980469,1353.030396 803.442444,1353.467285 803.904480,1353.904175 
	C805.917175,1352.676025 808.668091,1351.919678 809.809082,1350.134399 
	C813.799561,1343.890747 817.580200,1337.454102 820.721008,1330.753418 
	C822.103821,1327.803223 823.118225,1326.259888 826.858582,1327.594727 
	C824.593201,1335.665771 822.324402,1343.748901 820.034485,1352.479858 
	C820.510925,1353.354858 821.008484,1353.581909 821.505981,1353.809082 
z"/>
<path fill="#49DDF1" opacity="1.000000" stroke="none" 
	d="
M1120.052979,1184.011108 
	C1117.255615,1184.011108 1114.946411,1184.011108 1112.066650,1184.011108 
	C1112.066650,1191.312622 1112.066650,1198.365112 1112.066650,1205.714111 
	C1110.257935,1205.814453 1109.001465,1205.884277 1107.400391,1205.973145 
	C1107.400391,1190.353027 1107.400391,1174.952271 1107.400391,1158.681763 
	C1113.526123,1158.681763 1119.752441,1158.681396 1125.978882,1158.681763 
	C1128.973022,1158.681885 1131.972168,1158.790771 1134.960083,1158.654297 
	C1138.107422,1158.510620 1138.702637,1159.876587 1137.578491,1162.947266 
	C1129.194824,1162.947266 1120.788208,1162.947266 1112.141846,1162.947266 
	C1112.141846,1168.770874 1112.141846,1174.166626 1112.141846,1179.624023 
	C1119.504395,1180.068970 1126.661865,1180.490723 1133.809937,1181.034912 
	C1133.919678,1181.043213 1133.914185,1182.565308 1133.999756,1184.011108 
	C1129.414551,1184.011108 1124.977905,1184.011108 1120.052979,1184.011108 
z"/>
<path fill="#49DDF1" opacity="1.000000" stroke="none" 
	d="
M1227.506470,1201.915894 
	C1228.515869,1202.892090 1229.074951,1203.852783 1229.634155,1204.813354 
	C1228.824585,1205.198853 1228.017822,1205.913208 1227.205322,1205.919678 
	C1217.561157,1205.997559 1207.916260,1205.969971 1197.703125,1205.969971 
	C1197.703125,1198.246094 1197.703613,1190.794800 1197.703003,1183.343506 
	C1197.702515,1176.349854 1197.795898,1169.354126 1197.656128,1162.363281 
	C1197.594116,1159.264160 1198.497192,1157.905762 1202.222168,1159.218384 
	C1202.222168,1173.110352 1202.222168,1187.188354 1202.222168,1201.900269 
	C1210.842285,1201.900269 1218.949219,1201.900269 1227.506470,1201.915894 
z"/>
<path fill="#48DAEE" opacity="1.000000" stroke="none" 
	d="
M1062.649658,1352.513428 
	C1062.090576,1346.779663 1061.432495,1341.494263 1061.126709,1336.188354 
	C1060.875488,1331.831421 1059.498047,1329.019409 1054.250366,1328.849976 
	C1057.373047,1328.023682 1060.495728,1327.197388 1064.752075,1326.071045 
	C1065.845215,1334.981201 1066.861938,1343.269531 1067.878784,1351.557739 
	C1068.263550,1351.759399 1068.648438,1351.961060 1069.033203,1352.162720 
	C1072.619141,1346.725342 1076.297119,1341.343872 1079.671387,1335.778198 
	C1080.082397,1335.100464 1078.810059,1333.449219 1078.408203,1332.219482 
	C1077.938232,1330.781616 1077.296387,1329.309204 1077.307495,1327.856323 
	C1077.311279,1327.377686 1079.688843,1326.277344 1079.995239,1326.553833 
	C1081.213745,1327.653442 1082.897095,1329.225708 1082.833496,1330.547119 
	C1082.710938,1333.087769 1082.144409,1336.051758 1080.662720,1338.007690 
	C1072.950928,1348.188599 1064.950928,1358.154175 1056.892822,1368.066040 
	C1055.697144,1369.536865 1053.782959,1370.710693 1051.967407,1371.291138 
	C1050.727051,1371.687744 1048.970215,1371.024658 1047.696045,1370.355713 
	C1047.390503,1370.195435 1047.768799,1367.360352 1048.390259,1367.103027 
	C1049.548828,1366.623535 1051.123047,1367.083862 1052.510498,1367.261353 
	C1052.925537,1367.314331 1053.294556,1367.727783 1053.974976,1368.160767 
	C1058.426880,1363.910278 1064.689697,1360.905151 1062.649658,1352.513428 
z"/>
<path fill="#48DAEE" opacity="1.000000" stroke="none" 
	d="
M602.162109,1344.439087 
	C604.520508,1335.090820 609.720154,1328.872192 618.938110,1326.719360 
	C626.466858,1324.960815 632.112976,1329.757568 631.969666,1337.515991 
	C631.793762,1347.030762 624.248474,1355.910645 614.876404,1357.632568 
	C606.954346,1359.088135 601.896057,1354.029419 602.162109,1344.439087 
M608.611511,1353.428833 
	C612.529419,1356.939697 615.668396,1356.928467 619.220581,1352.946533 
	C623.434875,1348.222412 625.898621,1342.643188 626.190002,1336.234375 
	C626.328857,1333.180664 626.474854,1329.350464 622.873718,1328.850342 
	C620.256775,1328.487183 616.445251,1329.706543 614.669495,1331.617065 
	C609.264343,1337.433105 606.562073,1344.515259 608.611511,1353.428833 
z"/>
<path fill="#49DDF1" opacity="1.000000" stroke="none" 
	d="
M1085.781494,1344.569580 
	C1087.829468,1335.060913 1093.182129,1329.012329 1102.314087,1326.778442 
	C1110.056885,1324.884399 1116.034668,1329.959473 1115.410889,1337.886475 
	C1114.709351,1346.798340 1110.119629,1353.215942 1101.825806,1356.594727 
	C1092.270508,1360.487549 1085.317139,1355.353638 1085.781494,1344.569580 
M1092.166016,1341.982544 
	C1091.806274,1343.770020 1090.852783,1345.691162 1091.218018,1347.315552 
	C1091.855103,1350.149536 1092.564453,1353.796265 1094.584717,1355.297363 
	C1097.675659,1357.594238 1101.454346,1355.438843 1103.011353,1352.445312 
	C1105.783325,1347.116211 1108.116089,1341.438965 1109.637451,1335.646118 
	C1110.146729,1333.706543 1108.161255,1329.741943 1106.332275,1328.936646 
	C1104.436890,1328.101929 1100.521484,1329.192505 1098.964478,1330.837280 
	C1096.208618,1333.748535 1094.569336,1337.716919 1092.166016,1341.982544 
z"/>
<path fill="#49DDF1" opacity="1.000000" stroke="none" 
	d="
M998.899536,1326.906372 
	C1004.917664,1330.268066 1006.733765,1334.032959 1005.429504,1340.209839 
	C1003.541809,1349.149780 998.312866,1355.125244 989.351624,1357.387939 
	C981.591309,1359.347656 975.723694,1354.539307 975.858459,1346.588257 
	C976.057129,1334.859497 987.406860,1324.957520 998.899536,1326.906372 
M990.305298,1355.114502 
	C996.787598,1350.306396 999.654053,1343.535278 999.862610,1335.791504 
	C999.926025,1333.434570 998.349854,1329.545044 996.667114,1328.998657 
	C994.461426,1328.282349 990.686035,1329.407715 988.854004,1331.107544 
	C983.809021,1335.788574 981.552002,1342.126343 981.312317,1348.977173 
	C981.121704,1354.426758 983.887573,1356.414795 990.305298,1355.114502 
z"/>
<path fill="#49DDF1" opacity="1.000000" stroke="none" 
	d="
M743.187134,1343.122192 
	C745.884888,1334.572510 750.911987,1328.780640 759.515686,1326.767212 
	C767.414307,1324.918701 773.612488,1330.302002 772.713135,1338.343384 
	C771.890442,1345.699097 768.434143,1351.579590 761.800842,1355.264404 
	C757.069092,1357.893066 752.156860,1359.195557 747.187805,1355.976929 
	C742.550537,1352.973389 742.488708,1348.307983 743.187134,1343.122192 
M750.497192,1339.210327 
	C749.769165,1342.090942 748.341431,1345.015259 748.517578,1347.839355 
	C748.681091,1350.459595 749.945679,1354.270264 751.851318,1355.168701 
	C753.758484,1356.068115 757.835632,1354.810425 759.602966,1353.096924 
	C764.644836,1348.208496 767.235962,1341.822876 766.915039,1334.707397 
	C766.824646,1332.703857 765.563721,1329.752075 764.027771,1329.073853 
	C762.198303,1328.266113 758.803406,1328.640503 757.321777,1329.926025 
	C754.670349,1332.226685 752.943359,1335.592651 750.497192,1339.210327 
z"/>
<path fill="#49DDF1" opacity="1.000000" stroke="none" 
	d="
M893.126892,1352.129883 
	C890.468689,1353.845093 888.207214,1355.639648 885.644043,1356.715820 
	C881.436218,1358.482422 877.145752,1358.443359 873.379761,1355.397339 
	C869.480591,1352.243652 869.149231,1347.812988 870.193909,1343.511719 
	C872.271912,1334.955811 877.502136,1329.010376 886.276001,1326.830688 
	C894.598511,1324.763062 901.335327,1330.693604 899.483459,1339.064453 
	C898.487183,1343.567627 895.485168,1347.627197 893.126892,1352.129883 
M885.566162,1354.282104 
	C890.921875,1349.270264 893.855225,1343.010742 893.868469,1335.770386 
	C893.872864,1333.389404 892.327209,1329.525146 890.644714,1328.988037 
	C888.432373,1328.281738 884.692749,1329.432251 882.831177,1331.126465 
	C878.009949,1335.513794 875.883911,1341.557007 875.332703,1348.013794 
	C874.760986,1354.709229 878.634155,1357.338379 885.566162,1354.282104 
z"/>
<path fill="#48DAEE" opacity="1.000000" stroke="none" 
	d="
M1354.953613,1333.977173 
	C1359.414917,1331.283936 1363.431030,1328.111938 1367.985962,1326.771973 
	C1370.398682,1326.062256 1373.747925,1328.536377 1376.674438,1329.573242 
	C1375.489990,1332.455933 1375.098999,1336.493530 1372.948853,1337.970703 
	C1368.986084,1340.693481 1364.088135,1342.234741 1359.395386,1343.662109 
	C1355.185791,1344.942871 1353.914795,1347.269653 1356.508301,1350.937134 
	C1359.327271,1354.923218 1363.224243,1354.802856 1367.188721,1353.096069 
	C1369.402954,1352.142578 1371.407959,1350.703247 1373.695435,1349.373657 
	C1370.772217,1355.009399 1362.319336,1358.938721 1356.650391,1357.472290 
	C1351.827271,1356.224487 1348.419556,1351.674561 1349.606323,1346.460083 
	C1350.570435,1342.223877 1352.969604,1338.314331 1354.953613,1333.977173 
M1364.318481,1329.572632 
	C1359.834717,1332.482544 1357.202148,1336.561768 1356.131104,1342.259766 
	C1361.700928,1341.903687 1366.376709,1340.341797 1369.636230,1336.343018 
	C1370.991455,1334.680298 1371.022827,1331.938354 1371.656372,1329.687256 
	C1369.422485,1329.515015 1367.188721,1329.342896 1364.318481,1329.572632 
z"/>
<path fill="#48DAEE" opacity="1.000000" stroke="none" 
	d="
M728.649414,1356.807861 
	C725.860718,1357.103638 723.423828,1357.398926 720.993164,1357.354004 
	C718.527161,1357.308472 716.067444,1356.927002 713.260437,1356.660034 
	C713.858459,1353.707153 714.519653,1350.442627 715.180847,1347.177979 
	C715.500000,1347.183960 715.819214,1347.190063 716.138367,1347.196045 
	C716.458984,1348.567871 716.366577,1350.304565 717.187744,1351.234253 
	C718.810425,1353.071411 720.733765,1355.147339 722.927856,1355.803711 
	C724.470764,1356.265137 727.840332,1354.967773 728.299377,1353.698120 
	C729.010315,1351.732056 728.447144,1348.876709 727.484436,1346.843262 
	C726.305115,1344.352295 724.120178,1342.347290 722.436218,1340.083008 
	C720.090881,1336.929321 718.917236,1333.510742 721.439941,1329.979858 
	C723.952637,1326.463013 727.476562,1325.716309 731.619446,1326.788696 
	C733.662048,1327.317505 735.846252,1327.299561 738.607971,1327.598389 
	C738.092896,1330.142944 737.457520,1333.281982 736.822083,1336.421021 
	C736.544678,1336.454834 736.267212,1336.488647 735.989807,1336.522339 
	C735.484009,1334.910522 735.370605,1332.974365 734.373779,1331.768433 
	C733.110291,1330.239990 731.264038,1328.796265 729.406982,1328.302979 
	C728.283264,1328.004639 725.607910,1329.432983 725.485718,1330.336426 
	C725.233582,1332.200684 725.843628,1334.447754 726.799622,1336.141968 
	C728.002258,1338.273193 730.018921,1339.926025 731.486206,1341.930298 
	C735.911255,1347.974854 735.161804,1352.195679 728.649414,1356.807861 
z"/>
<path fill="#48DAEE" opacity="1.000000" stroke="none" 
	d="
M1175.999023,1327.137939 
	C1177.776123,1327.447266 1179.242554,1327.917236 1180.708984,1328.387329 
	C1179.979736,1330.316162 1179.449585,1332.376831 1178.339111,1334.053101 
	C1178.137939,1334.356934 1175.559204,1333.085693 1173.163940,1332.205688 
	C1166.968994,1337.407837 1162.564453,1344.808716 1160.306396,1353.403076 
	C1159.371216,1356.961914 1157.713501,1357.528320 1154.280884,1356.525879 
	C1156.411255,1349.332764 1158.575806,1342.240112 1160.601562,1335.108032 
	C1161.962891,1330.315308 1161.681763,1329.938477 1155.940674,1328.320068 
	C1160.412720,1327.619019 1163.832397,1327.083008 1167.683350,1326.479370 
	C1167.068970,1329.455811 1166.591309,1331.770020 1166.113647,1334.084229 
	C1166.477661,1334.315796 1166.841797,1334.547363 1167.205933,1334.778931 
	C1170.033447,1332.285522 1172.860840,1329.792114 1175.999023,1327.137939 
z"/>
<path fill="#48DAEE" opacity="1.000000" stroke="none" 
	d="
M1418.913086,1357.175049 
	C1415.928589,1357.193848 1413.323975,1357.069458 1410.717773,1357.005981 
	C1408.858276,1356.960693 1406.996948,1356.997437 1404.630859,1356.997437 
	C1405.135254,1353.955566 1405.689087,1350.615234 1406.242920,1347.275024 
	C1406.570068,1347.218628 1406.897095,1347.162354 1407.224243,1347.105957 
	C1407.593140,1348.495483 1407.565308,1350.235107 1408.416016,1351.199585 
	C1410.043457,1353.044434 1411.963135,1355.132690 1414.161987,1355.800293 
	C1415.692871,1356.264893 1419.051025,1354.955200 1419.522705,1353.675049 
	C1420.242798,1351.720581 1419.713257,1348.844238 1418.732666,1346.838989 
	C1417.444946,1344.205200 1415.136230,1342.086182 1413.390869,1339.656616 
	C1411.186768,1336.588501 1410.371094,1333.249023 1412.727905,1329.937012 
	C1415.113525,1326.583862 1418.483276,1325.783081 1422.456055,1326.686035 
	C1424.693970,1327.194702 1427.024902,1327.294067 1429.843628,1327.643555 
	C1429.326416,1330.168945 1428.683594,1333.307251 1427.784790,1337.696167 
	C1426.621948,1334.589966 1426.205322,1332.499878 1425.131958,1330.832397 
	C1423.398071,1328.138428 1420.708984,1327.077026 1417.841187,1328.983887 
	C1414.833252,1330.984375 1415.829468,1333.537720 1417.662720,1335.841309 
	C1419.318604,1337.921631 1421.211426,1339.821655 1422.775269,1341.964966 
	C1427.367554,1348.258057 1426.215332,1353.065918 1418.913086,1357.175049 
z"/>
<path fill="#48DAEE" opacity="1.000000" stroke="none" 
	d="
M1288.126709,1335.304565 
	C1287.393555,1333.293579 1287.172485,1330.822266 1285.954102,1330.144653 
	C1284.091309,1329.108887 1281.540161,1329.311035 1279.281250,1328.987671 
	C1279.169922,1331.186279 1278.352051,1333.683594 1279.123657,1335.508911 
	C1280.115234,1337.854370 1282.446045,1339.610962 1284.086792,1341.709839 
	C1286.824097,1345.211548 1288.409424,1349.072754 1285.625977,1353.178711 
	C1282.803589,1357.342041 1278.678589,1358.494751 1273.763306,1357.457153 
	C1271.371338,1356.952148 1268.874146,1356.944946 1266.008911,1356.672974 
	C1266.603516,1353.712524 1267.269287,1350.398804 1267.934937,1347.084961 
	C1268.212524,1347.092773 1268.490234,1347.100708 1268.767944,1347.108521 
	C1269.247314,1348.823364 1269.556396,1350.609863 1270.241089,1352.238281 
	C1271.721436,1355.758667 1276.364258,1357.374878 1279.513184,1355.409790 
	C1283.048828,1353.203247 1282.562866,1350.130249 1280.614258,1347.198242 
	C1278.775024,1344.430908 1275.932983,1342.139160 1274.789795,1339.156128 
	C1273.729980,1336.391113 1273.074707,1332.020020 1274.535522,1330.121338 
	C1276.217407,1327.935547 1280.347534,1327.270630 1283.546509,1326.736206 
	C1285.874756,1326.347412 1288.417358,1327.241699 1291.398071,1327.634277 
	C1290.784912,1330.174316 1290.063354,1333.173462 1289.319458,1336.166992 
	C1289.305054,1336.225342 1288.984009,1336.290283 1288.881958,1336.228027 
	C1288.628540,1336.072754 1288.419189,1335.845825 1288.126709,1335.304565 
z"/>
<path fill="#48DAEE" opacity="1.000000" stroke="none" 
	d="
M678.381714,1349.158203 
	C676.437073,1352.360718 678.179626,1358.510620 671.059631,1356.645508 
	C673.547913,1347.968262 676.036316,1339.290405 678.604187,1330.335571 
	C676.519409,1329.625244 675.059021,1329.127563 672.681946,1328.317627 
	C676.972229,1327.635010 680.345459,1327.098267 684.227234,1326.480591 
	C683.675415,1329.658081 683.217285,1332.296265 682.759155,1334.934326 
	C683.268494,1335.307739 683.777771,1335.681152 684.287048,1336.054688 
	C686.206421,1333.762085 687.812744,1331.047852 690.147278,1329.314331 
	C691.915894,1328.000854 696.272644,1326.923584 696.617432,1327.488037 
	C698.387756,1330.386353 697.171448,1333.037842 693.914246,1334.920288 
	C692.853516,1333.803345 691.900513,1332.799927 690.469971,1331.293701 
	C685.227905,1336.438721 681.174866,1342.107544 678.381714,1349.158203 
z"/>
<path fill="#48DAEE" opacity="1.000000" stroke="none" 
	d="
M1392.936523,1328.177002 
	C1388.420410,1330.017944 1388.500366,1332.706665 1390.906616,1335.788208 
	C1392.442383,1337.755127 1394.209473,1339.542969 1395.720215,1341.527344 
	C1398.485229,1345.158569 1400.365479,1349.066650 1397.222534,1353.373413 
	C1394.251343,1357.444946 1390.164795,1358.541016 1385.272827,1357.387329 
	C1383.045410,1356.862061 1380.693115,1356.866699 1377.819824,1356.571777 
	C1378.350220,1353.890747 1379.024902,1350.479614 1379.699707,1347.068604 
	C1379.985474,1347.101562 1380.271118,1347.134399 1380.556885,1347.167358 
	C1381.045288,1348.885498 1381.343872,1350.687988 1382.061035,1352.304688 
	C1383.627808,1355.836792 1388.245483,1357.364624 1391.337280,1355.347046 
	C1394.806396,1353.083374 1394.326050,1350.076294 1392.313477,1347.136841 
	C1390.718506,1344.807007 1388.853394,1342.663696 1387.147949,1340.407349 
	C1384.652466,1337.105347 1383.462036,1333.488647 1386.068848,1329.828491 
	C1388.584595,1326.295898 1392.213867,1325.752563 1396.334595,1326.837891 
	C1398.348389,1327.368408 1400.532715,1327.250244 1403.102295,1327.464355 
	C1402.581299,1330.108276 1401.960938,1333.257446 1401.340454,1336.406616 
	C1399.290283,1332.733032 1398.766357,1328.213745 1392.936523,1328.177002 
z"/>
<path fill="#49DDF1" opacity="1.000000" stroke="none" 
	d="
M787.388794,1351.985718 
	C788.245056,1351.056030 788.864563,1350.350830 789.484009,1349.645752 
	C789.798706,1349.879150 790.113342,1350.112427 790.428040,1350.345825 
	C789.392334,1351.641113 788.604980,1353.370361 787.266418,1354.136353 
	C784.870056,1355.507568 782.141541,1356.298462 779.551758,1357.331909 
	C779.372986,1354.750977 778.513062,1351.992432 779.132202,1349.619751 
	C781.936401,1338.874268 785.090454,1328.217773 788.268860,1317.574097 
	C789.301819,1314.114746 789.961426,1311.253418 784.704224,1310.798462 
	C788.156738,1310.180908 791.609253,1309.563354 795.760986,1308.820679 
	C791.445557,1324.046997 787.324829,1338.586426 783.204102,1353.125732 
	C783.571594,1353.404053 783.939148,1353.682251 784.306702,1353.960449 
	C785.255127,1353.377075 786.203552,1352.793579 787.388794,1351.985718 
z"/>
<path fill="#48DAEE" opacity="1.000000" stroke="none" 
	d="
M832.125000,1352.972534 
	C834.245056,1345.097778 836.317505,1337.627563 838.470337,1329.867554 
	C836.796692,1329.440796 835.516174,1329.114258 834.786011,1328.928101 
	C838.728333,1325.406250 842.665100,1321.889404 847.089539,1317.937012 
	C846.302490,1321.085083 845.644226,1323.718018 844.914673,1326.635986 
	C846.551697,1326.938110 848.018616,1327.208862 849.485535,1327.479736 
	C841.691589,1328.309570 842.700256,1335.025269 841.088928,1339.654663 
	C839.498352,1344.224243 838.493591,1348.997803 837.231934,1353.681885 
	C837.717529,1353.928345 838.203125,1354.174927 838.688721,1354.421509 
	C840.479675,1352.893921 842.270630,1351.366455 844.205322,1349.716431 
	C843.001831,1353.989258 838.643433,1358.354248 835.679443,1357.607178 
	C834.216248,1357.238525 833.261902,1354.851074 832.125000,1352.972534 
z"/>
<path fill="#48DAEE" opacity="1.000000" stroke="none" 
	d="
M1019.002808,1345.322021 
	C1017.923828,1348.156128 1016.594788,1350.570801 1016.150818,1353.138550 
	C1015.541260,1356.663330 1013.760559,1357.565918 1010.051575,1356.639282 
	C1012.104431,1349.566528 1014.194092,1342.497681 1016.202332,1335.405762 
	C1017.728638,1330.015869 1017.682678,1330.002808 1011.763245,1328.315918 
	C1015.984497,1327.630127 1019.317749,1327.088623 1023.348694,1326.433838 
	C1022.605835,1329.892456 1021.971558,1332.845337 1021.337280,1335.798218 
	C1022.002686,1336.390991 1022.668091,1336.983765 1023.333496,1337.576660 
	C1023.955872,1336.149414 1024.321533,1334.517822 1025.258545,1333.341309 
	C1026.799194,1331.406982 1028.493774,1329.428833 1030.540161,1328.121826 
	C1031.928589,1327.234985 1034.030396,1327.465088 1035.812988,1327.195435 
	C1035.398682,1329.470337 1034.984375,1331.745117 1034.570190,1334.020020 
	C1032.994629,1333.549438 1031.419067,1333.078735 1029.843384,1332.608154 
	C1029.546387,1332.104004 1029.249268,1331.599976 1028.952148,1331.095825 
	C1025.683838,1335.720825 1022.415588,1340.345703 1019.002808,1345.322021 
z"/>
<path fill="#48DAEE" opacity="1.000000" stroke="none" 
	d="
M854.904907,1341.645264 
	C855.643250,1339.017700 856.343506,1336.803467 856.933167,1334.560181 
	C858.189148,1329.781494 858.149963,1329.750610 853.244934,1328.170288 
	C856.647034,1327.614868 860.049133,1327.059448 864.249146,1326.373657 
	C861.754761,1335.629395 859.394043,1344.389160 857.033325,1353.148926 
	C857.470093,1353.362793 857.906860,1353.576660 858.343689,1353.790527 
	C859.959351,1352.571045 861.574951,1351.351562 863.190613,1350.131958 
	C863.510986,1350.496826 863.831421,1350.861694 864.151794,1351.226440 
	C861.289856,1353.384033 858.683838,1356.132935 855.487061,1357.516602 
	C852.811157,1358.674805 851.055664,1356.462402 851.688782,1353.553711 
	C852.533081,1349.674438 853.756165,1345.877563 854.904907,1341.645264 
M858.484009,1353.829834 
	C858.569397,1353.614624 858.654724,1353.399536 858.740173,1353.184448 
	C858.513733,1353.246338 858.287292,1353.308105 858.484009,1353.829834 
z"/>
<path fill="#48DAEE" opacity="1.000000" stroke="none" 
	d="
M1302.823486,1349.896240 
	C1302.711426,1351.455200 1302.711426,1352.488403 1302.711426,1354.473633 
	C1305.087402,1352.566772 1306.694824,1351.276733 1308.302246,1349.986572 
	C1308.470825,1350.130249 1308.639526,1350.273804 1308.808105,1350.417480 
	C1308.269897,1351.294434 1307.939575,1352.533813 1307.156128,1352.983276 
	C1304.299316,1354.622803 1300.623413,1357.853027 1298.480469,1357.081787 
	C1294.199829,1355.541260 1297.333252,1351.374634 1298.008301,1348.419556 
	C1299.080933,1343.725098 1300.529175,1339.108887 1301.983154,1334.511597 
	C1303.090698,1331.009277 1303.205200,1328.384521 1298.216553,1328.171875 
	C1301.650635,1327.615112 1305.084717,1327.058472 1309.317871,1326.372192 
	C1307.080566,1334.434326 1305.007935,1341.902466 1302.823486,1349.896240 
M1303.484253,1353.829956 
	C1303.569580,1353.614868 1303.654785,1353.399658 1303.740112,1353.184570 
	C1303.513794,1353.246460 1303.287354,1353.308350 1303.484253,1353.829956 
z"/>
<path fill="#48DAEE" opacity="1.000000" stroke="none" 
	d="
M1308.270752,1313.060059 
	C1309.796997,1314.076050 1311.407715,1314.972046 1311.956787,1316.305176 
	C1312.220337,1316.945557 1310.675659,1318.893921 1309.578125,1319.344727 
	C1308.766602,1319.678223 1306.340942,1318.432373 1306.380249,1318.090698 
	C1306.574829,1316.397217 1307.349121,1314.770142 1308.270752,1313.060059 
z"/>
<path fill="#48DAEE" opacity="1.000000" stroke="none" 
	d="
M866.338684,1318.502563 
	C864.488831,1318.550781 862.682922,1318.738159 861.381348,1318.016235 
	C860.869751,1317.732422 861.057434,1315.130493 861.730225,1314.118286 
	C862.229248,1313.367432 864.956848,1313.015381 865.090210,1313.282959 
	C865.853455,1314.816040 866.137634,1316.587402 866.338684,1318.502563 
z"/>
<path fill="#0D394B" opacity="1.000000" stroke="none" 
	d="
M986.162415,786.657166 
	C986.204407,737.844910 986.246460,689.032654 986.288208,640.220398 
	C986.289917,638.265564 986.288452,636.310791 986.288452,634.184753 
	C987.953796,634.037476 989.081482,633.849731 990.209106,633.850708 
	C1033.690674,633.889526 1077.177734,633.549805 1120.652100,634.138916 
	C1149.504883,634.529968 1177.106201,640.684021 1201.889771,656.495300 
	C1228.883423,673.716614 1244.972046,698.589172 1252.152832,729.330078 
	C1261.434814,769.066589 1258.554565,807.799255 1239.825073,844.490356 
	C1219.453735,884.398254 1186.580322,907.964111 1142.636963,915.836060 
	C1132.540771,917.644775 1122.126221,918.296509 1111.850098,918.370544 
	C1072.201050,918.656555 1032.548828,918.493103 992.897766,918.497009 
	C990.936035,918.497192 988.974243,918.496948 986.257507,918.496948 
	C986.257507,885.726746 986.257507,853.481018 986.645508,820.644897 
	C991.706482,819.918457 996.379517,819.782410 1001.512878,819.715942 
	C1018.205505,819.785522 1034.437744,819.785522 1050.619385,819.785522 
	C1050.619385,808.558777 1050.619385,798.128723 1050.619385,787.349915 
	C1033.913208,787.349915 1017.481567,787.349915 1000.590637,787.250366 
	C995.475098,786.986267 990.818726,786.821716 986.162415,786.657166 
z"/>
<path fill="#0D384B" opacity="1.000000" stroke="none" 
	d="
M951.471680,734.000488 
	C951.471741,751.815369 951.471741,769.130310 951.471741,786.804199 
	C894.304626,786.804199 837.431274,786.804199 779.993286,786.804199 
	C779.993286,785.175232 779.993347,783.563843 779.993286,781.952393 
	C779.992065,743.468506 779.913879,704.984314 780.024841,666.500793 
	C780.074219,649.383850 782.078979,632.572388 790.579102,617.266235 
	C798.428589,603.131653 810.923096,595.432434 826.751770,595.129333 
	C879.448914,594.120300 931.981506,596.375122 983.963745,606.024597 
	C1009.169739,610.703613 1033.955688,616.961853 1057.943359,626.703125 
	C1001.057678,626.703125 944.172119,626.703125 886.984802,626.703125 
	C886.984802,628.654846 886.984802,630.059326 886.984802,631.591858 
	C887.482910,631.731750 887.933044,631.963318 888.385742,631.968506 
	C891.717224,632.006165 895.049500,631.976807 898.381104,632.008789 
	C923.023987,632.244995 938.671997,644.004578 945.950012,667.581909 
	C950.424866,682.078186 951.302795,696.995728 951.455933,712.009216 
	C951.528992,719.172241 951.470581,726.336670 951.471680,734.000488 
z"/>
<path fill="#DEB92F" opacity="1.000000" stroke="none" 
	d="
M1001.052490,819.646362 
	C996.379517,819.782410 991.706482,819.918457 986.596191,820.200317 
	C986.136841,809.443237 986.114746,798.540344 986.127563,787.147339 
	C990.818726,786.821716 995.475098,786.986267 1000.576721,787.696533 
	C1001.032166,798.710266 1001.042297,809.178345 1001.052490,819.646362 
z"/>
<path fill="#0D394C" opacity="1.000000" stroke="none" 
	d="
M840.671631,1194.130615 
	C836.721619,1187.349731 836.012451,1180.598877 839.062073,1173.721313 
	C842.060608,1166.959106 846.996948,1162.688965 854.817383,1162.744995 
	C862.624268,1162.800781 867.570374,1167.128418 870.490295,1173.889893 
	C876.322754,1187.395630 867.155029,1202.660767 853.740967,1202.001343 
	C848.158997,1201.726807 844.045776,1198.874268 840.671631,1194.130615 
z"/>
<path fill="#0D394C" opacity="1.000000" stroke="none" 
	d="
M1316.748779,1196.727051 
	C1309.752197,1202.796875 1302.395752,1203.678589 1295.948853,1199.460815 
	C1288.599487,1194.652588 1285.360474,1184.476929 1288.321411,1175.498291 
	C1291.503296,1165.849121 1300.440063,1160.645020 1309.346802,1163.254517 
	C1318.538330,1165.947632 1324.384888,1177.360596 1321.458984,1187.644043 
	C1320.574463,1190.752808 1318.517700,1193.528198 1316.748779,1196.727051 
z"/>
<path fill="#0D384B" opacity="1.000000" stroke="none" 
	d="
M587.767700,1170.693481 
	C588.291565,1180.740967 585.057922,1184.219604 575.626770,1184.242554 
	C571.973755,1184.251465 568.320740,1184.244141 564.284912,1184.244141 
	C564.284912,1177.174561 564.284912,1170.306519 564.284912,1163.438721 
	C581.371826,1162.149170 584.121399,1162.078857 587.767700,1170.693481 
z"/>
<path fill="#0D394C" opacity="1.000000" stroke="none" 
	d="
M658.023071,1181.045654 
	C660.255737,1175.646362 662.367310,1170.616943 665.011658,1164.318604 
	C668.327332,1172.425049 671.210876,1179.474854 674.316101,1187.066895 
	C667.966675,1187.066895 662.135986,1187.066895 655.653809,1187.066895 
	C656.486694,1184.973267 657.194275,1183.194458 658.023071,1181.045654 
z"/>
<path fill="#0D394C" opacity="1.000000" stroke="none" 
	d="
M1222.474854,1344.222656 
	C1220.198975,1347.703857 1218.532227,1351.295532 1215.859009,1353.822388 
	C1212.546387,1356.953613 1208.322998,1356.882568 1203.920044,1354.137939 
	C1205.607666,1348.500732 1207.272949,1342.793701 1209.052368,1337.122437 
	C1209.391602,1336.041382 1210.055298,1334.997314 1210.785645,1334.115356 
	C1213.361084,1331.005005 1216.567749,1328.419067 1220.683472,1330.258179 
	C1224.530396,1331.976929 1224.172974,1335.925171 1223.648438,1339.483154 
	C1223.430786,1340.959839 1222.981323,1342.402588 1222.474854,1344.222656 
z"/>
<path fill="#0D394C" opacity="1.000000" stroke="none" 
	d="
M1211.248779,1329.541748 
	C1211.719849,1329.045166 1212.112549,1328.976929 1212.505127,1328.908569 
	C1212.435181,1329.309692 1212.482422,1329.815674 1212.252197,1330.073608 
	C1212.109253,1330.233521 1211.545166,1330.017334 1211.248779,1329.541748 
z"/>
<path fill="#0D394C" opacity="1.000000" stroke="none" 
	d="
M1138.637207,1347.421387 
	C1138.746338,1346.651978 1139.177734,1346.247070 1139.609009,1345.842163 
	C1139.711426,1346.517578 1139.813843,1347.193115 1139.765381,1348.186768 
	C1139.395874,1348.265259 1139.177490,1348.025513 1138.637207,1347.421387 
z"/>
<path fill="#0D394C" opacity="1.000000" stroke="none" 
	d="
M821.161987,1353.502197 
	C821.008484,1353.581909 820.510925,1353.354858 820.056274,1352.872681 
	C820.338867,1352.810181 820.578430,1353.002808 821.161987,1353.502197 
z"/>
<path fill="#0D394B" opacity="1.000000" stroke="none" 
	d="
M608.392334,1353.066895 
	C606.562073,1344.515259 609.264343,1337.433105 614.669495,1331.617065 
	C616.445251,1329.706543 620.256775,1328.487183 622.873718,1328.850342 
	C626.474854,1329.350464 626.328857,1333.180664 626.190002,1336.234375 
	C625.898621,1342.643188 623.434875,1348.222412 619.220581,1352.946533 
	C615.668396,1356.928467 612.529419,1356.939697 608.392334,1353.066895 
z"/>
<path fill="#0D394B" opacity="1.000000" stroke="none" 
	d="
M1092.314453,1341.612793 
	C1094.569336,1337.716919 1096.208618,1333.748535 1098.964478,1330.837280 
	C1100.521484,1329.192505 1104.436890,1328.101929 1106.332275,1328.936646 
	C1108.161255,1329.741943 1110.146729,1333.706543 1109.637451,1335.646118 
	C1108.116089,1341.438965 1105.783325,1347.116211 1103.011353,1352.445312 
	C1101.454346,1355.438843 1097.675659,1357.594238 1094.584717,1355.297363 
	C1092.564453,1353.796265 1091.855103,1350.149536 1091.218018,1347.315552 
	C1090.852783,1345.691162 1091.806274,1343.770020 1092.314453,1341.612793 
z"/>
<path fill="#0D394C" opacity="1.000000" stroke="none" 
	d="
M989.967896,1355.291504 
	C983.887573,1356.414795 981.121704,1354.426758 981.312317,1348.977173 
	C981.552002,1342.126343 983.809021,1335.788574 988.854004,1331.107544 
	C990.686035,1329.407715 994.461426,1328.282349 996.667114,1328.998657 
	C998.349854,1329.545044 999.926025,1333.434570 999.862610,1335.791504 
	C999.654053,1343.535278 996.787598,1350.306396 989.967896,1355.291504 
z"/>
<path fill="#0D394C" opacity="1.000000" stroke="none" 
	d="
M750.663574,1338.861816 
	C752.943359,1335.592651 754.670349,1332.226685 757.321777,1329.926025 
	C758.803406,1328.640503 762.198303,1328.266113 764.027771,1329.073853 
	C765.563721,1329.752075 766.824646,1332.703857 766.915039,1334.707397 
	C767.235962,1341.822876 764.644836,1348.208496 759.602966,1353.096924 
	C757.835632,1354.810425 753.758484,1356.068115 751.851318,1355.168701 
	C749.945679,1354.270264 748.681091,1350.459595 748.517578,1347.839355 
	C748.341431,1345.015259 749.769165,1342.090942 750.663574,1338.861816 
z"/>
<path fill="#0D394C" opacity="1.000000" stroke="none" 
	d="
M885.272095,1354.517212 
	C878.634155,1357.338379 874.760986,1354.709229 875.332703,1348.013794 
	C875.883911,1341.557007 878.009949,1335.513794 882.831177,1331.126465 
	C884.692749,1329.432251 888.432373,1328.281738 890.644714,1328.988037 
	C892.327209,1329.525146 893.872864,1333.389404 893.868469,1335.770386 
	C893.855225,1343.010742 890.921875,1349.270264 885.272095,1354.517212 
z"/>
<path fill="#0D394B" opacity="1.000000" stroke="none" 
	d="
M1364.636719,1329.371582 
	C1367.188721,1329.342896 1369.422485,1329.515015 1371.656372,1329.687256 
	C1371.022827,1331.938354 1370.991455,1334.680298 1369.636230,1336.343018 
	C1366.376709,1340.341797 1361.700928,1341.903687 1356.131104,1342.259766 
	C1357.202148,1336.561768 1359.834717,1332.482544 1364.636719,1329.371582 
z"/>
<path fill="#0D394C" opacity="1.000000" stroke="none" 
	d="
M858.272461,1353.599854 
	C858.287292,1353.308105 858.513733,1353.246338 858.740112,1353.184448 
	C858.654724,1353.399536 858.569397,1353.614624 858.272461,1353.599854 
z"/>
<path fill="#0D394C" opacity="1.000000" stroke="none" 
	d="
M1303.272705,1353.600098 
	C1303.287354,1353.308350 1303.513794,1353.246460 1303.740112,1353.184570 
	C1303.654785,1353.399658 1303.569580,1353.614868 1303.272705,1353.600098 
z"/>
<path fill="#FBCF30" opacity="1.000000" stroke="none" 
	d="
M1001.512878,819.715942 
	C1001.042297,809.178345 1001.032166,798.710266 1001.035950,787.796082 
	C1017.481567,787.349915 1033.913208,787.349915 1050.619385,787.349915 
	C1050.619385,798.128723 1050.619385,808.558777 1050.619385,819.785522 
	C1034.437744,819.785522 1018.205505,819.785522 1001.512878,819.715942 
z"/>
</svg>